<?xml version="1.0" standalone="no"?>
<!DOCTYPE svg PUBLIC "-//W3C//DTD SVG 20010904//EN"
 "http://www.w3.org/TR/2001/REC-SVG-20010904/DTD/svg10.dtd">
<svg version="1.0" xmlns="http://www.w3.org/2000/svg"
 width="1890.000000pt" height="1417.000000pt" viewBox="0 0 1890.000000 1417.000000"
 preserveAspectRatio="xMidYMid meet">

<g transform="translate(0.000000,1417.000000) scale(0.100000,-0.100000)"
fill="#000000" stroke="none">
<path d="M9020 13844 c-215 -20 -318 -32 -385 -43 -33 -5 -82 -12 -110 -15
-101 -11 -330 -59 -595 -122 -36 -9 -83 -20 -105 -24 -49 -10 -155 -39 -166
-45 -4 -3 -27 -9 -51 -14 -24 -5 -128 -39 -233 -76 -104 -37 -206 -72 -225
-78 -19 -6 -42 -17 -51 -24 -8 -7 -23 -13 -31 -13 -14 0 -89 -30 -208 -83 -73
-33 -414 -196 -430 -207 -8 -5 -46 -25 -85 -45 -38 -19 -88 -46 -110 -60 -22
-13 -53 -31 -70 -40 -16 -8 -55 -31 -85 -50 -30 -19 -70 -42 -87 -52 -18 -9
-33 -20 -33 -25 0 -4 -5 -8 -11 -8 -6 0 -43 -22 -82 -48 -40 -27 -85 -57 -101
-68 -51 -34 -72 -48 -136 -94 -34 -25 -70 -49 -78 -55 -9 -5 -50 -37 -92 -70
-41 -34 -104 -83 -140 -110 -36 -27 -72 -57 -80 -66 -8 -9 -37 -34 -65 -55
-27 -21 -59 -48 -71 -59 -12 -11 -59 -54 -105 -95 -84 -75 -437 -428 -474
-474 -11 -13 -81 -96 -156 -183 -75 -87 -149 -178 -165 -202 -16 -24 -37 -55
-46 -69 -9 -14 -21 -28 -26 -31 -13 -8 -246 -344 -277 -401 -6 -10 -17 -25
-24 -34 -19 -23 -81 -127 -81 -136 0 -5 -6 -15 -14 -22 -7 -8 -23 -34 -35 -58
-11 -25 -30 -58 -40 -75 -43 -66 -85 -147 -257 -500 -19 -38 -34 -74 -34 -78
0 -4 -15 -42 -34 -85 -131 -294 -286 -766 -351 -1067 -8 -38 -22 -97 -30 -130
-9 -33 -20 -82 -25 -110 -5 -27 -18 -102 -29 -165 -20 -113 -58 -397 -81 -615
-18 -163 -24 -721 -11 -915 23 -337 58 -652 81 -740 5 -19 23 -107 41 -195 17
-88 35 -178 39 -200 4 -22 17 -76 29 -120 12 -44 26 -98 31 -120 18 -84 117
-416 144 -485 8 -19 28 -73 46 -120 17 -47 37 -98 44 -115 32 -73 76 -191 76
-201 0 -6 7 -17 15 -24 8 -7 15 -19 15 -26 0 -21 118 -266 208 -434 19 -36 46
-85 59 -110 75 -143 275 -459 402 -635 28 -38 62 -86 76 -105 56 -81 138 -187
203 -266 50 -60 197 -230 207 -239 6 -5 42 -46 80 -90 38 -44 85 -95 104 -114
71 -67 127 -121 156 -152 17 -17 66 -63 110 -102 44 -38 109 -96 145 -128 99
-88 209 -178 271 -224 31 -22 76 -58 101 -78 25 -20 48 -37 52 -37 4 0 42 -26
84 -58 124 -94 417 -285 527 -346 17 -9 66 -37 110 -61 44 -25 98 -54 120 -65
22 -11 47 -24 55 -29 8 -5 33 -18 55 -28 22 -10 72 -35 110 -54 126 -65 371
-174 450 -200 17 -6 39 -15 50 -20 30 -13 157 -60 180 -66 11 -2 34 -11 50
-18 47 -20 329 -106 445 -135 19 -5 80 -21 135 -36 55 -14 114 -28 130 -31 17
-2 80 -15 140 -28 234 -52 411 -78 740 -110 256 -25 292 -26 685 -22 422 5
619 19 900 63 58 9 130 20 160 24 73 11 194 35 250 50 25 6 65 15 90 19 42 8
105 22 175 41 215 56 298 80 460 132 105 33 204 67 220 74 17 7 66 26 110 43
214 79 310 119 345 144 13 9 29 17 34 17 5 0 29 9 53 20 24 11 63 29 87 41 24
11 50 27 56 35 7 7 17 14 22 14 8 0 171 78 208 100 154 90 289 171 323 192 23
15 53 33 67 40 14 6 33 18 43 27 9 8 26 19 36 25 21 12 161 108 201 138 14 10
86 64 160 120 74 56 151 114 170 130 19 16 40 32 45 36 14 10 249 215 255 222
3 4 32 30 65 60 96 85 193 180 295 290 169 183 211 231 350 405 173 217 193
242 245 320 26 39 54 78 63 88 8 9 20 26 26 36 6 10 29 45 51 77 45 68 67 106
90 151 8 18 19 33 23 33 4 0 18 19 30 43 29 54 49 88 62 107 28 41 69 111 98
170 18 36 37 72 41 80 20 35 104 204 139 280 11 25 36 79 56 122 20 42 36 80
36 84 0 4 14 39 31 78 45 103 54 126 74 181 38 108 113 332 125 375 6 25 21
70 31 101 10 31 19 63 19 72 0 9 6 31 14 49 13 31 29 88 46 168 4 19 20 89 35
155 53 232 99 507 116 685 5 58 14 119 19 135 19 62 34 687 22 920 -6 121 -13
238 -16 260 -3 22 -7 72 -10 110 -8 108 -35 321 -51 410 -19 100 -63 327 -75
380 -4 22 -14 67 -20 100 -7 33 -16 69 -20 80 -5 11 -20 65 -34 120 -14 55
-32 125 -41 155 -9 30 -23 80 -30 110 -17 65 -114 345 -144 413 -11 27 -21 55
-21 62 0 7 -7 26 -15 42 -8 15 -24 51 -35 78 -12 28 -28 65 -36 83 -8 17 -20
47 -28 65 -8 17 -30 67 -50 109 -20 42 -36 83 -36 91 0 7 -9 22 -20 32 -11 10
-20 23 -20 30 0 10 -34 75 -70 135 -5 8 -15 29 -23 45 -11 24 -108 198 -152
273 -40 69 -111 180 -125 197 -10 11 -19 25 -21 30 -6 17 -122 189 -134 200
-7 6 -28 35 -47 65 -34 52 -81 117 -110 150 -7 9 -65 81 -129 160 -64 80 -132
161 -150 181 -19 21 -77 83 -129 140 -111 121 -220 230 -349 349 -51 47 -117
108 -146 136 -30 28 -65 58 -77 67 -13 8 -48 37 -79 63 -116 102 -593 454
-614 454 -3 0 -42 24 -88 53 -45 29 -98 63 -117 75 -34 20 -196 116 -235 139
-11 6 -69 37 -130 68 -60 31 -117 60 -125 65 -8 4 -44 22 -80 38 -36 16 -85
39 -109 51 -25 12 -48 21 -52 21 -5 0 -41 15 -81 34 -40 19 -93 42 -118 50
-25 8 -74 27 -110 42 -88 36 -179 70 -273 101 -42 14 -80 29 -83 34 -3 5 -18
9 -34 9 -16 0 -47 7 -67 15 -21 8 -83 26 -138 40 -55 15 -125 33 -155 41 -30
9 -83 22 -116 29 -34 7 -90 20 -125 28 -35 8 -102 23 -149 32 -47 9 -96 19
-110 22 -14 3 -38 7 -55 9 -16 3 -56 9 -88 15 -147 26 -417 55 -652 69 -227
13 -743 10 -915 -6z m925 -155 c215 -13 331 -24 510 -50 83 -12 175 -25 205
-29 30 -4 98 -17 150 -28 52 -11 118 -24 145 -30 49 -10 156 -35 225 -52 34
-9 145 -42 390 -117 63 -19 138 -44 165 -55 28 -11 64 -23 82 -25 18 -3 38
-11 44 -19 6 -8 17 -14 24 -14 20 0 162 -57 273 -111 56 -27 111 -49 121 -49
10 0 24 -7 31 -15 7 -8 17 -15 23 -15 15 0 170 -77 282 -140 55 -31 116 -62
135 -70 19 -8 46 -21 60 -30 54 -36 139 -88 215 -133 44 -26 118 -74 165 -107
47 -33 128 -89 181 -124 108 -73 370 -279 472 -371 12 -11 63 -56 112 -100
179 -158 543 -536 639 -665 22 -30 46 -58 52 -62 7 -4 38 -43 70 -85 33 -43
69 -89 82 -103 24 -27 98 -132 147 -209 17 -26 40 -60 53 -77 32 -40 63 -87
113 -169 23 -38 57 -92 74 -120 44 -68 112 -187 153 -265 19 -36 49 -92 67
-125 19 -33 34 -67 34 -76 1 -9 10 -26 21 -39 11 -13 20 -28 20 -34 0 -6 7
-24 15 -40 8 -16 36 -77 61 -135 25 -58 54 -124 63 -146 10 -22 28 -65 40 -95
25 -60 40 -95 65 -152 9 -20 16 -43 16 -51 0 -8 9 -34 20 -58 11 -24 20 -56
20 -70 0 -14 7 -34 15 -45 8 -10 15 -28 15 -38 0 -22 35 -136 55 -181 16 -35
75 -258 75 -282 0 -9 7 -39 14 -67 14 -49 51 -230 60 -291 2 -16 8 -43 14 -60
12 -33 24 -123 48 -340 9 -77 20 -174 25 -215 24 -199 33 -570 20 -869 -7
-163 -15 -309 -17 -326 -2 -16 -11 -84 -18 -150 -8 -66 -17 -131 -20 -145 -3
-14 -10 -61 -16 -105 -31 -231 -88 -505 -142 -690 -16 -55 -35 -120 -42 -145
-50 -172 -69 -232 -97 -304 -10 -27 -19 -54 -19 -60 0 -12 -69 -196 -95 -251
-23 -52 -82 -188 -95 -225 -11 -27 -140 -293 -198 -406 -43 -84 -59 -113 -77
-140 -30 -46 -59 -97 -65 -114 -9 -25 -42 -79 -88 -144 -23 -34 -47 -73 -53
-89 -6 -15 -15 -27 -20 -27 -5 0 -16 -15 -25 -32 -9 -18 -36 -59 -60 -91 -24
-31 -44 -60 -44 -62 0 -6 -125 -180 -147 -205 -29 -32 -149 -186 -164 -210
-31 -48 -239 -271 -433 -465 -184 -183 -321 -312 -355 -333 -14 -9 -59 -45
-98 -80 -76 -67 -217 -179 -279 -222 -19 -14 -47 -34 -62 -46 -15 -11 -65 -46
-112 -77 -47 -31 -98 -66 -115 -77 -95 -64 -135 -90 -143 -90 -5 0 -17 -9 -27
-20 -10 -11 -23 -20 -29 -20 -6 0 -36 -17 -66 -38 -30 -21 -82 -51 -115 -67
-33 -16 -96 -49 -140 -74 -122 -68 -267 -139 -465 -226 -47 -21 -89 -41 -95
-46 -5 -5 -18 -9 -30 -9 -12 0 -25 -4 -30 -9 -6 -5 -41 -21 -80 -36 -38 -14
-78 -30 -87 -36 -10 -5 -27 -9 -38 -9 -17 0 -101 -30 -185 -66 -47 -20 -174
-58 -410 -123 -38 -11 -106 -27 -150 -36 -44 -9 -96 -20 -115 -25 -254 -63
-648 -119 -970 -140 -197 -13 -785 -13 -945 0 -152 12 -368 37 -434 50 -25 5
-66 12 -91 14 -55 7 -173 28 -305 57 -55 12 -120 25 -145 29 -60 11 -157 34
-200 48 -19 6 -55 16 -80 22 -73 18 -270 80 -338 106 -34 13 -71 24 -82 24
-11 0 -28 4 -38 10 -9 5 -60 26 -112 46 -52 19 -109 42 -127 50 -17 8 -35 14
-39 14 -19 0 -577 266 -654 312 -19 11 -55 32 -80 46 -25 13 -63 35 -85 48
-22 13 -47 27 -55 31 -18 8 -307 194 -370 237 -25 17 -71 51 -102 76 -60 47
-129 98 -158 115 -68 41 -308 244 -508 429 -33 31 -313 314 -342 345 -33 37
-166 186 -178 201 -36 43 -147 179 -165 203 -12 16 -36 45 -52 65 -17 20 -49
65 -70 99 -22 34 -45 62 -51 63 -6 0 -17 13 -25 28 -8 16 -57 94 -110 173
-109 163 -179 276 -179 287 0 5 -16 35 -36 68 -21 32 -45 75 -56 94 -10 19
-28 51 -39 70 -28 47 -138 265 -184 365 -20 44 -42 94 -50 110 -8 17 -23 53
-34 80 -117 298 -181 472 -181 492 0 8 -6 27 -14 41 -23 44 -137 462 -156 572
-6 36 -22 112 -34 170 -32 143 -47 221 -56 310 -5 41 -18 140 -29 220 -53 389
-54 1051 -1 1493 18 158 40 308 55 385 35 181 47 239 55 267 5 17 16 66 25
110 9 44 21 96 26 115 30 118 61 228 89 315 17 55 37 121 45 146 7 25 22 67
34 92 12 25 21 56 21 67 0 12 7 34 15 48 8 15 40 92 71 172 31 80 84 201 117
270 148 308 178 368 206 415 17 28 36 61 43 75 7 14 29 53 50 88 21 34 38 66
38 71 0 4 9 16 20 26 11 10 20 24 20 30 0 7 12 28 28 48 31 42 82 122 82 130
0 4 14 26 31 49 16 24 47 68 67 98 21 31 43 62 49 70 37 45 103 131 133 175
44 63 60 83 85 109 11 12 35 41 54 66 41 53 164 195 196 224 13 12 62 66 111
120 123 139 243 256 388 379 38 32 89 78 114 103 25 24 49 44 53 44 5 0 30 19
57 43 199 172 502 387 788 559 16 10 36 22 44 27 108 68 484 261 650 334 19 8
66 29 103 46 38 17 80 34 95 37 15 4 32 10 37 14 16 12 188 80 201 80 7 0 25
6 41 14 29 14 194 67 348 112 50 14 98 30 107 35 10 5 26 9 36 9 10 0 45 7 77
16 432 116 961 189 1510 207 110 4 338 -2 530 -14z"/>
<path d="M9415 13147 c-124 -51 -177 -122 -191 -257 -9 -92 54 -223 125 -259
130 -65 284 -49 373 40 86 86 113 186 79 301 -36 125 -113 179 -265 184 -57 3
-102 -1 -121 -9z m186 -69 c43 -30 68 -59 69 -79 0 -9 7 -31 16 -48 21 -42 15
-181 -9 -227 -30 -58 -111 -91 -178 -74 -48 13 -109 63 -133 108 -24 46 -37
149 -25 205 17 76 30 97 78 123 58 31 133 28 182 -8z"/>
<path d="M8814 13112 c-79 -26 -128 -64 -165 -128 -29 -51 -33 -66 -33 -133 0
-60 5 -85 23 -121 47 -90 60 -103 149 -145 48 -23 141 -29 231 -15 101 16 124
36 119 104 -3 54 -17 63 -36 24 -24 -51 -69 -73 -147 -73 -60 0 -77 4 -116 29
-72 46 -101 103 -107 207 -4 73 -1 91 17 127 26 51 75 79 157 86 74 7 121 -9
150 -51 14 -21 25 -28 31 -22 12 12 5 98 -10 117 -15 19 -200 15 -263 -6z"/>
<path d="M9980 13119 c0 -8 7 -22 15 -33 9 -12 12 -34 9 -65 -2 -25 -11 -116
-18 -203 -9 -98 -20 -167 -30 -187 -15 -28 -15 -31 1 -39 10 -5 52 -12 93 -16
41 -3 106 -9 143 -12 59 -6 70 -4 82 12 17 22 19 53 5 74 -7 12 -12 11 -30 -5
-27 -24 -128 -28 -154 -6 -20 17 -20 61 -1 255 13 120 20 157 36 179 29 40 16
49 -75 55 -60 4 -76 2 -76 -9z"/>
<path d="M10455 13070 c-4 -6 -2 -17 4 -23 15 -15 13 -76 -5 -167 -17 -84 -20
-103 -35 -210 -8 -57 -16 -79 -32 -92 -31 -24 -13 -37 69 -49 38 -5 83 -13 99
-18 17 -6 53 -13 81 -16 48 -6 53 -5 73 21 35 45 21 95 -18 60 -21 -20 -105
-21 -141 -3 -29 15 -31 38 -11 183 22 165 46 266 67 281 16 12 17 15 4 23 -8
5 -31 10 -51 10 -20 0 -50 3 -67 6 -18 4 -32 1 -37 -6z"/>
<path d="M8093 12976 c-54 -15 -62 -23 -30 -35 14 -5 29 -16 33 -23 20 -31 97
-298 89 -306 -2 -2 -35 16 -74 40 -40 24 -89 52 -109 64 -89 50 -118 68 -141
85 -13 11 -29 19 -36 19 -7 0 -29 14 -50 30 -21 17 -44 30 -51 30 -16 0 -29
-44 -18 -61 4 -7 11 -29 15 -48 4 -20 24 -99 45 -176 47 -177 53 -224 28 -242
-9 -7 -14 -16 -11 -20 10 -9 157 29 157 42 0 5 -13 17 -29 26 -15 9 -30 27
-33 40 -7 31 -63 219 -73 242 -10 25 22 22 64 -6 51 -33 195 -119 288 -171 45
-26 85 -51 88 -57 11 -17 35 11 35 42 0 16 -6 48 -13 71 -8 24 -24 88 -37 143
-12 55 -27 109 -33 120 -6 11 -11 52 -12 90 -2 66 -4 70 -26 71 -13 1 -43 -3
-66 -10z"/>
<path d="M10946 12952 c12 -37 5 -106 -14 -136 -4 -6 -12 -33 -19 -61 -38
-165 -60 -232 -82 -254 -29 -29 -26 -38 12 -49 270 -80 256 -78 276 -56 40 41
32 106 -8 70 -21 -19 -42 -20 -101 -2 -45 14 -45 14 -43 57 1 24 10 69 20 99
18 52 20 55 51 54 41 -2 82 -29 82 -54 0 -10 4 -21 10 -25 13 -8 42 52 38 82
-3 24 -10 28 -67 39 -35 7 -66 16 -69 18 -9 10 -4 68 7 79 6 6 11 23 11 38 0
43 22 54 76 38 36 -11 49 -20 56 -41 13 -36 24 -35 43 2 20 38 19 57 -2 69
-17 8 -265 71 -283 71 -4 0 -2 -17 6 -38z"/>
<path d="M11497 12789 c-122 -29 -207 -141 -207 -273 0 -150 106 -259 299
-308 41 -10 82 -16 92 -13 24 8 44 42 63 105 9 30 28 67 43 82 25 26 25 29 10
46 -18 20 -134 58 -145 48 -3 -4 -1 -16 6 -26 16 -26 15 -52 -2 -92 -8 -18
-17 -45 -21 -60 -5 -25 -10 -28 -48 -28 -46 0 -71 13 -129 68 -28 26 -40 49
-49 87 -14 64 -4 155 20 187 10 13 21 33 25 46 4 12 24 34 43 50 58 44 160 35
241 -21 39 -26 53 -46 76 -111 7 -19 7 -19 28 2 15 14 21 34 22 64 1 42 1 42
-70 85 -47 28 -95 48 -143 58 -80 17 -98 17 -154 4z"/>
<path d="M7276 12704 c-3 -9 -6 -136 -6 -284 l0 -268 -34 -26 c-19 -14 -43
-26 -53 -26 -23 0 -73 46 -73 67 0 8 -9 32 -19 52 -57 106 -130 271 -135 304
-4 20 -10 37 -14 37 -4 0 -35 -14 -69 -31 -67 -33 -79 -53 -38 -63 18 -5 33
-24 56 -74 18 -37 57 -118 87 -179 30 -62 58 -130 61 -150 4 -25 12 -39 24
-41 16 -3 135 50 147 66 3 4 30 16 60 26 30 11 68 28 84 39 l28 20 -21 16
c-20 15 -22 25 -19 86 l3 69 37 11 c20 6 43 16 50 23 6 6 21 12 33 12 24 0
100 -69 110 -100 9 -29 49 -35 98 -14 71 30 76 40 31 59 -21 9 -61 40 -89 70
-167 181 -302 315 -316 315 -9 0 -20 -7 -23 -16z m118 -201 c44 -50 42 -66
-10 -88 -46 -19 -54 -11 -54 57 0 49 8 81 19 76 4 -2 24 -22 45 -45z"/>
<path d="M12060 12600 c0 -5 5 -10 10 -10 6 0 10 5 10 10 0 6 -4 10 -10 10 -5
0 -10 -4 -10 -10z"/>
<path d="M12104 12582 c-7 -4 -16 -24 -22 -44 -15 -54 -185 -398 -197 -398
-18 0 -34 -21 -28 -36 3 -8 12 -14 19 -14 8 0 42 -15 75 -32 130 -70 145 -77
165 -78 24 0 64 39 64 63 0 20 -8 21 -46 7 -22 -9 -34 -6 -69 14 -66 39 -72
50 -49 93 10 20 29 56 41 80 29 55 49 55 104 3 23 -22 45 -40 49 -40 14 0 40
37 40 56 0 14 -17 27 -65 48 -36 16 -67 32 -70 36 -3 5 10 37 28 72 23 45 39
64 55 66 26 4 102 -52 102 -74 0 -28 43 -3 53 31 9 29 0 38 -83 79 -41 20 -92
46 -112 57 -42 22 -39 21 -54 11z"/>
<path d="M6615 12402 c-40 -26 -49 -32 -142 -85 -26 -15 -66 -39 -88 -52 -36
-23 -65 -37 -102 -50 -18 -6 -16 -70 2 -85 18 -15 45 -6 45 15 0 8 18 26 39
39 22 14 42 30 46 36 11 18 41 11 54 -12 6 -13 20 -36 31 -53 11 -16 29 -46
40 -65 12 -19 36 -60 55 -90 62 -102 78 -139 71 -171 -3 -16 -3 -29 0 -29 12
0 144 76 144 83 0 4 -15 23 -34 41 -29 30 -67 87 -116 174 -25 45 -91 142
-101 148 -5 3 -9 16 -9 29 0 28 57 65 113 73 32 4 37 8 37 31 0 28 -16 51 -34
50 -6 0 -29 -12 -51 -27z"/>
<path d="M12523 12315 c-17 -7 -44 -32 -59 -54 -25 -38 -26 -46 -20 -107 4
-36 15 -88 26 -117 33 -91 35 -122 9 -146 -32 -30 -82 -27 -126 6 -30 23 -34
32 -30 57 10 67 -22 77 -53 16 -11 -21 -20 -44 -20 -50 0 -20 64 -72 120 -97
51 -23 59 -24 107 -13 42 9 60 20 88 52 31 37 35 48 35 98 0 36 -10 85 -26
131 -38 109 -40 133 -15 158 28 28 63 26 100 -4 21 -19 31 -36 33 -63 4 -47
27 -52 51 -11 24 44 21 64 -15 95 -71 59 -143 76 -205 49z"/>
<path d="M9040 12225 c-243 -28 -438 -62 -670 -117 -69 -16 -150 -35 -180 -42
-68 -16 -159 -44 -182 -57 -10 -5 -28 -9 -40 -9 -13 0 -43 -10 -67 -21 -25
-11 -61 -24 -80 -29 -57 -14 -411 -158 -471 -191 -8 -4 -82 -43 -165 -85 -82
-42 -179 -94 -214 -115 -34 -22 -66 -39 -69 -39 -3 0 -14 -8 -24 -17 -11 -10
-53 -38 -93 -63 -108 -66 -260 -172 -345 -240 -41 -34 -97 -78 -125 -99 -27
-21 -61 -48 -75 -60 -66 -59 -210 -191 -247 -228 -24 -24 -44 -43 -47 -43 -4
0 -72 -70 -216 -220 -34 -36 -75 -82 -91 -103 -15 -21 -39 -47 -53 -58 -14
-11 -26 -26 -26 -33 0 -7 -9 -24 -21 -37 -42 -50 -146 -190 -199 -269 -30 -45
-64 -91 -75 -103 -11 -12 -27 -35 -35 -50 -8 -15 -39 -65 -68 -112 -28 -46
-57 -94 -63 -107 -5 -13 -21 -41 -34 -63 -72 -120 -243 -485 -310 -665 -7 -19
-24 -64 -38 -100 -14 -36 -37 -105 -52 -155 -15 -49 -31 -101 -36 -115 -9 -26
-71 -262 -95 -365 -26 -112 -35 -160 -47 -265 -7 -58 -15 -109 -18 -115 -6
-10 -18 -116 -39 -335 -36 -396 -12 -857 69 -1300 11 -58 22 -118 24 -135 4
-29 58 -239 77 -300 5 -16 23 -82 41 -145 17 -63 38 -133 46 -155 8 -22 22
-58 29 -80 8 -22 18 -49 23 -60 5 -11 19 -47 31 -80 37 -96 76 -186 176 -402
13 -28 24 -54 24 -56 0 -3 18 -34 40 -68 22 -35 43 -71 47 -79 11 -28 154
-264 192 -320 21 -30 55 -82 76 -115 21 -33 43 -64 50 -70 6 -5 25 -30 41 -54
16 -24 36 -55 45 -68 9 -13 26 -31 38 -39 11 -8 21 -20 21 -26 0 -10 126 -167
159 -198 9 -9 38 -41 64 -72 65 -77 221 -235 338 -339 52 -47 106 -97 120
-110 32 -30 166 -141 188 -154 9 -5 36 -26 61 -46 25 -19 72 -53 105 -76 33
-22 87 -58 120 -80 33 -22 92 -61 130 -87 39 -25 79 -52 90 -59 132 -88 433
-242 660 -337 25 -10 177 -68 225 -85 19 -7 65 -24 103 -39 37 -14 76 -26 86
-26 11 0 39 -9 64 -19 39 -17 166 -50 442 -117 81 -19 205 -44 255 -50 19 -3
64 -9 100 -15 282 -45 811 -62 1110 -35 215 20 434 50 555 76 22 4 76 16 120
25 44 9 103 23 130 31 28 7 102 27 165 43 121 30 218 59 310 93 30 10 85 30
122 43 167 59 476 201 673 310 44 25 91 49 105 55 14 6 32 18 41 26 22 20 129
84 140 84 5 0 14 9 21 20 7 11 17 20 23 20 12 0 162 102 271 185 365 276 735
640 984 969 85 112 129 171 149 201 54 78 128 191 150 229 13 22 41 67 62 99
21 32 49 79 62 105 13 26 45 87 70 135 26 49 47 95 47 103 0 8 7 17 15 20 8 4
15 12 15 19 0 7 11 35 24 62 35 71 66 142 82 187 8 21 18 44 23 50 4 6 22 52
39 101 61 175 88 250 100 272 7 12 12 29 12 37 0 9 13 62 28 118 39 138 53
194 63 248 5 25 13 65 19 90 20 88 50 266 60 345 5 44 13 112 19 150 5 39 17
156 26 260 15 164 15 227 6 460 -6 149 -16 297 -21 330 -5 33 -19 128 -31 210
-34 247 -48 328 -79 455 -5 19 -15 62 -24 95 -13 55 -44 170 -80 301 -8 28
-18 60 -24 70 -5 11 -15 35 -22 54 -7 19 -29 82 -49 140 -20 58 -46 123 -58
145 -11 22 -24 51 -28 65 -4 14 -23 59 -42 100 -19 41 -39 84 -44 95 -5 11
-13 27 -18 35 -5 8 -37 72 -71 143 -35 70 -67 127 -72 127 -4 0 -13 12 -19 27
-5 15 -33 65 -62 111 -29 46 -56 91 -62 101 -22 37 -150 226 -162 241 -8 8
-28 34 -46 57 -170 220 -205 263 -300 368 -84 93 -306 317 -367 370 -244 215
-448 372 -636 490 -17 11 -56 36 -85 56 -107 70 -139 89 -154 89 -8 0 -15 5
-15 11 0 5 -15 17 -32 25 -18 9 -55 29 -83 45 -27 16 -61 34 -75 40 -14 6 -32
15 -40 20 -8 5 -22 12 -30 15 -8 3 -51 23 -95 44 -44 21 -100 47 -125 58 -93
40 -176 75 -210 87 -19 7 -69 26 -110 42 -78 30 -271 93 -350 114 -25 6 -65
17 -90 25 -25 7 -61 15 -80 18 -19 3 -71 14 -115 25 -44 12 -93 21 -108 21
-16 0 -36 4 -45 9 -19 10 -143 33 -347 62 -121 18 -199 21 -575 24 -312 2
-468 -1 -550 -10z m-379 -501 c4 -16 7 -49 8 -72 1 -36 8 -52 44 -92 40 -46
140 -110 171 -110 18 0 40 -36 33 -55 -3 -7 -21 -15 -40 -19 -19 -4 -41 -13
-48 -22 -7 -8 -32 -27 -56 -41 -24 -13 -43 -31 -43 -38 0 -8 -11 -23 -25 -34
-15 -11 -34 -45 -46 -80 -12 -34 -26 -61 -33 -61 -7 0 -28 30 -47 66 -19 36
-40 77 -47 89 -7 13 -31 37 -55 54 -23 17 -48 36 -55 42 -8 6 -37 17 -65 23
-68 15 -71 35 -10 60 53 22 110 76 119 112 5 19 11 23 29 18 18 -4 30 4 59 39
20 24 39 59 42 78 8 43 32 81 47 76 7 -2 15 -17 18 -33z m-1143 -501 c3 -34
10 -61 18 -66 8 -4 14 -14 14 -22 0 -18 60 -81 91 -95 13 -6 42 -22 64 -35 22
-14 46 -27 53 -31 27 -14 12 -41 -30 -53 -62 -19 -168 -105 -182 -148 -4 -14
-12 -20 -22 -16 -11 4 -14 -5 -14 -39 0 -24 -6 -52 -13 -62 -12 -16 -13 -16
-29 1 -9 10 -35 51 -58 92 -60 106 -122 159 -204 176 -27 6 -51 16 -54 22 -2
7 20 23 51 37 61 27 92 64 89 107 -2 31 20 49 62 49 36 0 80 42 96 92 7 24 18
51 23 62 16 32 40 -5 45 -71z m2927 33 c53 -4 134 -26 142 -39 3 -6 -10 -25
-30 -43 -35 -33 -80 -135 -107 -245 -16 -65 -8 -1347 9 -1444 17 -94 44 -128
103 -128 29 -1 56 7 83 24 l40 24 1010 -3 c941 -2 1244 -6 1288 -18 26 -8 20
-33 -10 -45 -16 -6 -41 -23 -58 -39 -16 -15 -60 -44 -97 -64 l-67 -36 -943 6
c-915 6 -999 8 -1139 35 -60 11 -71 11 -119 -7 -46 -17 -57 -26 -84 -74 l-31
-55 3 -895 c2 -492 6 -905 9 -917 4 -19 1 -23 -19 -23 -14 0 -40 11 -59 24
-19 13 -62 39 -97 57 -35 19 -70 42 -79 51 -9 10 -24 18 -34 18 -37 0 -49 27
-49 114 0 50 5 89 13 99 8 11 37 22 82 29 109 17 125 51 37 80 -288 97 -312
109 -327 168 -5 20 -73 184 -131 315 -7 17 -40 100 -74 185 -34 85 -72 169
-85 186 -22 28 -31 32 -102 40 -43 5 -190 9 -328 8 -208 -1 -271 -4 -375 -22
-195 -34 -360 -71 -425 -96 -22 -8 -49 -15 -61 -16 -11 0 -24 -3 -28 -7 -4 -4
-26 -13 -49 -19 -143 -39 -221 -83 -202 -114 12 -19 71 -5 170 40 69 31 120
50 134 50 9 0 45 9 81 21 109 35 122 39 220 59 246 50 279 53 530 54 135 1
279 -3 321 -7 l77 -8 17 -42 c10 -23 28 -69 40 -102 13 -33 49 -118 80 -190
31 -71 61 -145 67 -162 5 -18 13 -33 18 -33 6 0 10 -7 10 -16 0 -8 9 -34 19
-57 11 -24 21 -56 23 -72 3 -29 1 -31 -67 -52 -38 -12 -104 -31 -145 -43 -41
-11 -104 -29 -140 -39 -36 -10 -83 -23 -105 -27 -24 -6 -40 -15 -40 -23 0 -16
28 -26 106 -35 30 -4 59 -12 65 -19 7 -7 14 -41 17 -75 5 -56 3 -66 -16 -80
-98 -79 -137 -129 -137 -175 0 -26 -29 -56 -75 -77 l-30 -13 39 -9 c48 -10 58
-3 92 71 29 62 71 111 122 143 31 19 43 20 130 14 53 -4 101 -11 106 -16 25
-25 36 -9 36 50 0 55 -2 62 -25 72 -43 19 -28 28 49 28 41 0 86 4 100 10 47
18 27 -8 -24 -32 -55 -25 -66 -49 -54 -113 6 -36 7 -37 44 -31 24 4 54 -1 86
-12 53 -20 202 -93 245 -120 57 -36 226 -131 264 -148 22 -10 47 -23 55 -29
18 -13 115 -51 153 -59 21 -5 29 -14 34 -37 5 -24 9 -28 27 -23 62 17 197 227
245 381 42 135 177 465 241 588 273 530 661 845 1150 935 36 6 74 13 85 16 19
4 175 16 239 18 45 2 42 -21 -6 -45 -56 -29 -175 -132 -246 -215 -26 -30 -132
-189 -132 -198 0 -5 -6 -17 -14 -25 -18 -22 -98 -176 -146 -282 -40 -88 -90
-231 -110 -309 -6 -25 -18 -72 -26 -105 -55 -216 -72 -334 -86 -575 -17 -312
6 -504 81 -672 26 -57 72 -106 171 -179 72 -54 102 -69 235 -119 33 -12 74
-28 90 -35 17 -7 82 -29 145 -50 130 -42 270 -91 315 -110 40 -18 187 -86 202
-94 92 -48 312 -241 406 -356 50 -62 154 -203 182 -248 17 -26 44 -67 61 -90
17 -23 40 -60 52 -82 11 -22 32 -55 46 -74 48 -64 25 -93 -37 -48 -36 26 -111
57 -202 83 -44 13 -96 18 -190 18 -223 0 -344 -48 -493 -193 -84 -82 -209
-254 -227 -312 -4 -13 -11 -28 -15 -34 -4 -5 -20 -41 -35 -80 -14 -38 -30 -79
-35 -90 -5 -11 -21 -56 -35 -100 -15 -44 -33 -88 -40 -99 -22 -29 -33 -11 -24
36 13 67 10 226 -5 329 -14 91 -56 271 -76 323 -5 14 -5 37 -1 54 5 17 5 36
-1 46 -15 26 -38 1 -38 -40 0 -32 -4 -36 -63 -63 -41 -18 -86 -50 -125 -89
-61 -59 -62 -61 -62 -115 0 -40 -4 -56 -15 -61 -17 -6 -60 8 -69 23 -3 5 -21
13 -38 17 -18 3 -42 12 -53 19 -11 8 -63 30 -115 50 -52 20 -99 40 -104 46 -6
5 -19 9 -30 9 -10 0 -53 13 -95 29 -42 16 -112 40 -156 54 -44 14 -105 35
-135 46 -30 12 -64 21 -75 21 -21 0 -182 54 -192 64 -4 3 -23 6 -43 6 -21 0
-57 7 -80 15 -24 8 -77 15 -122 15 -61 0 -80 3 -84 15 -4 8 -2 21 4 28 5 6 12
45 15 85 5 65 4 73 -11 70 -13 -2 -18 -17 -22 -58 -5 -56 -14 -80 -30 -80 -5
0 -12 9 -15 20 -10 31 -25 23 -25 -13 0 -37 24 -77 46 -77 8 0 14 -4 14 -10 0
-13 -27 -13 -35 0 -3 6 -15 10 -26 10 -12 0 -24 12 -32 33 -14 31 -14 30 -21
-53 -4 -47 -7 -110 -8 -140 l0 -54 -13 32 c-9 21 -17 118 -24 296 -6 146 -11
268 -12 273 -6 35 0 36 108 29 59 -4 113 -12 120 -18 7 -6 21 -27 30 -46 17
-36 17 -36 24 -12 4 14 7 49 8 78 1 45 -6 67 -44 139 -25 47 -45 91 -45 99 0
9 11 14 30 14 16 0 44 6 62 14 115 49 445 54 535 8 23 -12 57 -22 75 -22 49 0
64 -13 34 -29 -14 -8 -29 -10 -38 -5 -7 5 -33 9 -58 10 -25 0 -52 4 -62 8 -19
9 -33 -23 -23 -54 l6 -20 26 20 c14 11 29 17 34 14 21 -13 1 -84 -24 -84 -7 0
-18 9 -25 20 -11 18 -14 19 -27 6 -19 -19 -19 -26 3 -42 16 -12 16 -13 -1 -19
-11 -5 -25 -1 -36 9 -26 23 -121 20 -121 -4 0 -5 21 -12 48 -16 26 -4 57 -14
70 -22 18 -12 28 -13 48 -3 29 13 44 7 44 -18 0 -31 -19 -40 -54 -26 -17 7
-67 19 -111 25 -44 7 -87 19 -96 26 -20 17 -72 19 -67 2 6 -16 78 -57 102 -58
21 0 161 -45 187 -60 9 -5 27 -6 39 -3 37 10 48 -16 42 -102 -4 -58 -1 -80 12
-100 32 -49 57 -18 36 45 -10 32 -11 42 0 55 16 19 30 10 30 -19 0 -12 12 -45
26 -74 27 -55 54 -68 73 -35 7 14 12 15 25 4 17 -15 36 -7 36 15 0 9 -11 30
-25 48 -14 18 -25 44 -25 58 0 25 0 25 58 16 31 -5 61 -13 66 -19 6 -5 3 -28
-8 -59 -28 -77 -4 -160 46 -160 20 0 24 20 8 36 -16 16 -18 96 -2 101 7 3 12
-5 12 -22 0 -49 62 -151 84 -137 6 4 27 7 46 7 45 0 50 23 15 69 -15 20 -29
53 -32 76 -5 36 -3 40 15 40 11 0 24 -4 27 -10 3 -5 19 -10 34 -10 16 0 34 -7
41 -15 7 -9 29 -15 54 -15 26 0 56 -9 81 -25 22 -13 47 -25 56 -25 9 0 22 -7
29 -15 7 -8 27 -15 44 -15 18 0 41 -7 52 -15 21 -16 70 -20 78 -7 5 8 -91 211
-111 237 -4 6 -21 30 -38 55 -50 77 -125 163 -183 213 -31 26 -60 54 -65 62
-4 8 -12 15 -17 15 -4 0 -44 22 -87 48 -43 26 -96 55 -118 64 -114 46 -145 57
-195 71 -109 30 -208 42 -365 42 -148 0 -302 -15 -350 -35 -11 -4 -58 -15
-105 -25 -47 -9 -98 -20 -115 -25 -41 -11 -80 -18 -219 -35 -113 -14 -253 -10
-343 11 -176 39 -358 174 -452 334 -24 41 -52 87 -62 102 -11 15 -19 32 -19
38 0 6 -8 32 -18 58 -11 26 -36 101 -56 167 -113 364 -131 407 -216 512 -42
52 -123 113 -151 113 -19 0 -8 -21 17 -32 16 -7 27 -23 31 -41 5 -22 15 -33
42 -44 54 -22 102 -109 71 -128 -17 -10 -11 -25 10 -25 23 0 61 -76 65 -134 2
-21 8 -43 14 -49 6 -6 11 -25 11 -43 0 -17 6 -37 14 -43 8 -7 17 -30 20 -51 3
-22 9 -58 12 -79 3 -22 15 -47 25 -57 10 -9 19 -25 19 -35 0 -39 86 -221 139
-293 162 -225 359 -337 641 -366 52 -6 98 -14 102 -18 5 -5 7 -712 6 -1573
l-3 -1565 -43 -64 c-23 -36 -69 -87 -101 -115 -48 -40 -60 -57 -65 -87 -10
-60 -30 -67 -237 -85 -175 -15 -183 -15 -196 3 -25 34 -16 80 23 117 l36 34
-43 36 c-23 21 -46 37 -51 37 -19 0 -18 -30 2 -50 26 -26 22 -41 -13 -58 -32
-16 -42 -47 -27 -87 9 -25 8 -31 -7 -42 -25 -19 -115 -9 -169 18 l-43 22 -31
-27 c-28 -23 -40 -26 -103 -25 -70 1 -138 9 -222 26 l-40 8 4 63 c3 60 2 62
-28 79 -17 10 -31 21 -31 25 0 4 -13 14 -30 23 -16 9 -30 23 -30 33 0 9 -9 31
-20 47 -23 35 -26 72 -7 94 7 9 19 35 27 59 18 58 32 68 72 52 44 -18 68 -39
68 -62 0 -10 11 -23 25 -30 14 -6 29 -25 35 -44 7 -19 16 -34 22 -34 5 0 30
18 56 40 25 22 56 43 69 46 28 7 29 16 3 39 -27 24 -25 41 5 61 33 21 32 50
-2 66 -22 10 -29 23 -36 62 -9 58 2 78 33 58 25 -15 30 -15 30 1 0 8 -9 22
-20 32 -12 11 -20 31 -20 51 0 26 9 40 43 69 23 21 57 44 75 53 31 15 36 15
64 -1 30 -17 50 -14 88 18 8 7 26 15 40 18 14 3 64 15 113 26 54 13 111 34
148 56 33 19 63 35 67 35 15 1 72 61 72 76 0 16 -1 16 -18 1 -10 -10 -22 -17
-25 -17 -4 0 -29 -13 -55 -30 -43 -26 -112 -41 -112 -24 0 16 76 95 96 100 31
8 64 54 64 89 0 35 34 31 38 -5 2 -14 11 -36 22 -50 l19 -25 35 34 c59 57 70
133 29 202 -21 35 -11 56 29 67 26 6 33 13 33 33 0 22 -3 24 -41 21 -52 -4
-80 22 -49 44 10 8 27 14 36 14 22 0 51 28 43 41 -11 19 -145 -1 -202 -29 -43
-22 -59 -37 -78 -74 -13 -26 -36 -55 -50 -65 -14 -9 -30 -27 -35 -40 -5 -13
-25 -29 -47 -38 -33 -14 -39 -20 -39 -46 0 -23 -8 -38 -32 -56 -30 -23 -32
-29 -26 -65 6 -33 3 -44 -16 -64 -44 -47 14 -84 70 -45 41 29 51 26 51 -14 0
-31 -3 -35 -37 -45 -21 -6 -57 -13 -80 -17 -36 -5 -44 -3 -50 13 -3 11 -11 22
-16 25 -29 20 -157 -49 -188 -101 -11 -17 -27 -30 -38 -30 -33 0 -71 22 -71
42 0 16 7 25 52 65 28 25 58 61 58 71 0 5 -7 12 -15 16 -25 9 -40 53 -26 70
11 13 16 13 34 2 20 -13 28 -11 72 12 55 30 60 43 22 56 -21 8 -31 6 -47 -9
-30 -27 -36 -11 -9 25 40 52 93 100 112 100 10 0 28 -7 41 -16 34 -21 43 -1
20 41 -17 32 -17 35 -1 53 20 22 13 32 -20 32 -13 0 -41 11 -63 25 -23 15 -54
25 -75 25 -46 0 -76 16 -68 36 3 8 -1 22 -9 32 -8 9 -19 29 -25 43 -11 27 -11
27 25 23 139 -13 162 -13 173 7 6 12 20 19 38 19 49 0 111 66 111 118 0 22 18
32 56 32 17 0 24 5 24 20 0 28 -26 36 -64 21 -17 -7 -51 -21 -76 -30 -25 -9
-53 -26 -63 -38 -10 -13 -25 -23 -34 -23 -8 0 -28 -11 -45 -25 -33 -28 -48
-32 -48 -12 0 8 12 19 26 26 47 21 13 48 -65 50 -22 1 -45 -8 -65 -23 -18 -13
-40 -25 -50 -27 -10 -2 -24 -12 -30 -22 -9 -15 -5 -23 28 -51 22 -18 37 -37
33 -42 -3 -5 -22 -18 -42 -28 -33 -18 -37 -18 -52 -3 -14 14 -15 22 -5 54 6
20 10 39 7 41 -9 10 -42 -11 -60 -38 -11 -16 -25 -30 -31 -30 -6 0 -44 -14
-84 -30 -83 -34 -90 -35 -90 -15 0 20 90 85 195 139 49 26 96 53 105 61 20 18
160 81 223 102 29 9 56 20 62 24 5 5 18 9 30 9 11 0 29 7 39 15 11 8 28 15 38
15 10 0 37 9 60 21 22 11 50 18 61 15 12 -3 28 1 37 8 8 7 60 21 115 31 55 10
106 24 114 31 13 11 18 11 33 -3 15 -13 20 -14 34 -2 14 11 18 11 29 -4 7 -10
11 -27 8 -37 -6 -24 25 -40 38 -19 11 16 4 621 -7 689 -8 43 -8 44 -15 15 -4
-16 -7 -49 -8 -72 -1 -54 -18 -64 -26 -16 -4 21 -8 42 -9 48 -1 5 -8 -39 -16
-98 -7 -59 -16 -110 -20 -112 -4 -3 -10 16 -13 41 -5 51 -14 65 -27 44 -8 -12
-45 -14 -225 -13 -184 2 -215 1 -215 -12 0 -8 -6 -15 -14 -15 -8 0 -17 -6 -19
-12 -4 -10 -7 -10 -14 -1 -7 10 -22 9 -68 -2 -33 -8 -74 -14 -92 -15 -27 0
-32 4 -38 30 -7 30 -24 42 -26 18 0 -10 -2 -10 -6 0 -7 18 -73 16 -73 -3 0
-10 -10 -15 -30 -15 -20 0 -30 -5 -30 -15 0 -9 -9 -15 -25 -15 -19 0 -25 5
-23 17 2 11 -6 19 -22 23 -36 8 -40 47 -6 60 16 6 26 17 26 29 0 33 -19 34
-38 2 -9 -17 -24 -31 -33 -31 -8 0 -30 -11 -48 -24 -18 -13 -48 -27 -66 -30
-19 -4 -39 -16 -45 -26 -6 -11 -15 -20 -20 -20 -16 0 -12 30 5 36 8 3 17 14
20 25 5 14 13 18 28 14 16 -4 36 6 75 40 52 46 66 75 37 75 -9 0 -35 -18 -59
-40 -24 -22 -49 -40 -55 -40 -7 0 -18 -6 -26 -12 -7 -7 -25 -22 -40 -33 -15
-11 -36 -29 -48 -41 -12 -12 -32 -24 -43 -28 -12 -4 -24 -14 -26 -24 -3 -9
-18 -24 -34 -32 -16 -8 -44 -30 -62 -49 -44 -46 -98 -79 -110 -66 -11 11 200
200 384 343 59 46 257 182 265 182 4 0 14 7 23 15 17 17 93 60 248 139 59 30
115 59 125 64 10 6 38 18 63 28 25 10 63 25 85 35 22 9 72 27 110 39 39 11 93
29 120 39 28 11 85 25 129 32 85 14 114 28 101 49 -11 17 -119 7 -194 -19 -31
-11 -83 -27 -116 -36 -221 -61 -627 -269 -873 -446 -136 -99 -326 -249 -380
-301 -65 -62 -78 -59 -102 28 -10 32 -30 91 -44 129 -15 39 -34 90 -43 115
-17 49 -76 197 -99 247 -8 17 -14 38 -14 46 0 9 -4 18 -9 22 -5 3 -12 18 -16
35 -3 16 -17 52 -31 80 -13 27 -24 56 -24 62 0 7 -7 22 -15 32 -8 11 -15 28
-15 39 0 10 -7 31 -15 45 -9 15 -33 69 -53 121 -37 92 -62 125 -62 82 0 -30
58 -177 75 -191 8 -7 15 -27 15 -45 0 -18 6 -38 14 -44 8 -7 18 -27 22 -44 3
-18 17 -54 29 -82 12 -27 30 -72 39 -100 10 -27 24 -64 32 -82 8 -17 14 -35
14 -40 0 -5 18 -54 40 -109 22 -54 40 -104 40 -109 0 -6 12 -44 26 -85 14 -41
29 -93 34 -115 4 -22 16 -61 26 -87 13 -33 15 -51 8 -58 -7 -7 -50 -7 -139 2
-137 12 -281 3 -430 -28 -38 -8 -101 -19 -138 -24 -38 -6 -81 -17 -97 -25 -16
-8 -38 -15 -49 -15 -23 0 -383 -119 -457 -150 -27 -12 -67 -28 -89 -35 -47
-16 -358 -171 -426 -212 -189 -113 -300 -204 -403 -328 -16 -19 -28 -26 -33
-20 -5 6 -28 57 -52 115 -23 58 -49 118 -57 133 -8 16 -14 34 -14 40 0 6 -15
45 -34 87 -19 41 -62 145 -97 230 -113 281 -240 594 -253 625 -8 17 -30 73
-51 125 -41 106 -80 199 -100 245 -16 35 -44 102 -70 165 -10 25 -23 59 -30
75 -7 17 -29 72 -49 123 -20 51 -40 101 -45 110 -16 30 -61 139 -61 147 0 6
-57 141 -105 250 -15 34 -69 168 -95 235 -9 25 -38 96 -64 159 -25 62 -46 118
-46 123 0 13 85 141 104 157 9 7 16 18 16 24 0 5 23 35 52 66 28 31 67 74 87
95 50 55 257 243 296 269 195 132 313 199 460 262 33 15 68 30 77 36 10 5 26
9 36 9 10 0 22 4 28 9 11 12 221 70 294 82 205 34 284 40 474 37 l200 -2 9 29
c6 17 25 50 44 74 18 24 33 48 33 53 0 5 15 28 33 51 49 61 68 95 58 101 -5 4
-9 29 -9 57 -1 49 2 54 51 103 44 44 52 56 49 84 -2 18 1 32 7 32 6 0 11 11
11 25 0 16 6 25 15 25 17 0 21 45 5 55 -17 11 -11 35 9 35 11 0 21 4 23 9 2 4
13 12 26 15 15 5 24 3 28 -8 14 -37 21 -9 27 100 5 110 10 135 23 122 6 -7 9
-265 3 -288 -2 -8 -10 -21 -16 -28 -15 -15 -18 -138 -4 -146 13 -9 21 19 21
77 0 28 11 82 24 121 20 56 26 101 32 211 8 184 9 180 -3 253 -9 59 -9 62 11
62 39 0 66 -12 66 -29 0 -9 26 -41 58 -71 68 -67 138 -146 146 -166 6 -16 36
-19 36 -4 0 12 -65 100 -86 116 -19 15 -36 72 -23 80 5 3 32 -15 60 -40 28
-25 57 -46 64 -46 19 0 27 30 9 37 -8 3 -21 20 -29 38 -9 22 -21 35 -37 37
-12 2 -24 11 -26 21 -3 14 4 17 32 17 26 0 36 -4 36 -15 0 -9 11 -20 25 -25
14 -5 25 -17 25 -27 0 -14 3 -13 16 5 9 13 14 26 10 29 -7 7 19 33 35 33 6 0
30 6 53 13 l41 12 -85 11 -85 11 80 3 c44 2 94 5 110 7 17 1 487 6 1045 9 989
6 1015 6 1024 25 7 15 3 26 -19 49 -37 39 -105 63 -236 84 -97 16 -175 17
-810 12 -387 -3 -942 -7 -1234 -8 -468 -3 -536 -5 -585 -20 -30 -10 -95 -27
-144 -39 l-89 -22 -17 21 c-19 22 -35 202 -24 249 4 16 2 28 -6 33 -21 13 -1
30 29 24 20 -4 40 1 67 18 47 30 99 41 124 28 15 -8 23 -6 37 9 17 18 85 51
104 51 18 0 8 -48 -16 -84 -14 -20 -25 -38 -25 -40 0 -2 38 -10 85 -17 69 -10
261 -10 998 0 502 7 1012 11 1135 10 244 -3 275 4 204 40 -23 12 -53 21 -67
21 -16 0 -25 6 -25 15 0 9 9 15 25 15 14 0 28 7 32 16 5 13 15 15 49 10 51 -7
67 8 62 56 -3 31 -1 33 29 36 18 2 42 -2 53 -8 17 -9 25 -8 40 5 10 9 24 14
30 10 6 -4 17 -2 24 4 9 8 22 8 39 2 15 -6 29 -6 31 -2 11 18 17 166 26 701 6
366 6 569 -1 595 -5 22 -12 102 -16 177 l-6 137 24 5 c63 14 74 14 244 2z
m-3867 -866 c3 -50 8 -70 18 -70 7 0 22 -19 32 -42 16 -37 30 -49 93 -82 41
-22 88 -51 105 -66 l31 -26 -62 -23 c-91 -32 -185 -117 -211 -191 -28 -79 -33
-90 -44 -90 -6 0 -15 12 -20 26 -6 15 -19 38 -30 52 -11 13 -20 31 -20 38 0
25 -60 102 -84 108 -13 3 -31 17 -40 31 -12 19 -25 25 -52 25 -37 0 -74 15
-74 29 0 5 24 23 54 39 63 36 96 74 96 112 0 32 18 42 60 33 36 -7 62 20 80
82 7 22 18 55 26 74 21 50 37 26 42 -59z m3077 -852 c35 3 55 0 55 -7 0 -7
-22 -11 -55 -11 -51 0 -55 -2 -55 -24 l0 -24 -225 -1 -225 -1 -6 25 c-14 54
-13 54 228 57 143 2 224 -1 226 -7 1 -6 26 -9 57 -7z m-598 -14 c-3 -3 -12 -4
-19 -1 -8 3 -5 6 6 6 11 1 17 -2 13 -5z m633 -29 c0 -16 -27 -32 -37 -22 -3 4
-3 13 0 22 8 20 37 20 37 0z m-3852 -77 c7 -7 12 -31 12 -55 0 -68 79 -165
167 -206 65 -30 83 -45 83 -68 0 -13 -12 -21 -39 -29 -21 -5 -44 -17 -51 -25
-7 -9 -28 -23 -47 -32 -19 -9 -37 -23 -40 -32 -4 -9 -18 -27 -33 -41 -15 -14
-35 -48 -45 -75 -29 -78 -37 -82 -69 -33 -15 23 -30 55 -33 71 -4 17 -33 56
-73 97 -63 64 -71 69 -116 72 -45 3 -49 5 -49 28 0 19 9 29 40 43 54 25 83 54
90 88 9 39 31 59 65 59 23 0 35 9 55 37 14 21 25 43 25 50 0 6 4 23 10 37 10
28 29 33 48 14z m5230 -404 c28 -3 52 -9 52 -14 0 -4 -20 -13 -45 -19 -42 -10
-54 -31 -19 -31 8 0 14 -10 14 -25 0 -14 5 -25 11 -25 7 0 19 -9 29 -19 12
-15 33 -21 76 -24 l59 -3 -62 -2 c-81 -3 -83 -22 -3 -22 33 0 60 -4 60 -10 0
-5 7 -10 15 -10 30 0 14 -20 -17 -22 l-33 -1 33 -4 c17 -2 32 -8 32 -14 0 -5
7 -9 16 -9 10 0 14 -6 10 -15 -3 -8 4 -24 16 -34 16 -16 19 -27 14 -55 -6 -29
-4 -36 9 -36 8 0 15 -5 15 -11 0 -6 9 -9 20 -6 15 4 20 0 20 -14 0 -10 11 -26
25 -35 14 -9 25 -25 25 -35 0 -12 7 -19 20 -19 23 0 27 -31 8 -52 -7 -7 -29
-34 -48 -58 -19 -25 -41 -52 -48 -60 -23 -25 -121 -198 -183 -320 -50 -100
-140 -353 -226 -635 -15 -51 -97 -205 -140 -262 -25 -35 -66 -45 -76 -19 -3 8
-24 20 -46 26 -23 6 -45 19 -51 30 -6 12 -10 160 -10 397 0 385 18 1462 24
1472 5 7 329 3 404 -5z m102 -14 c0 -5 -4 -10 -10 -10 -5 0 -10 5 -10 10 0 6
5 10 10 10 6 0 10 -4 10 -10z m-3530 -206 c0 -14 -4 -22 -10 -19 -5 3 -10 17
-10 31 0 14 4 22 10 19 6 -3 10 -17 10 -31z m3680 6 c0 -5 -7 -10 -15 -10 -8
0 -15 5 -15 10 0 6 7 10 15 10 8 0 15 -4 15 -10z m1400 -20 c0 -5 -7 -10 -16
-10 -8 0 -12 5 -9 10 3 6 10 10 16 10 5 0 9 -4 9 -10z m-5140 -30 c0 -19 -11
-26 -23 -14 -8 8 3 34 14 34 5 0 9 -9 9 -20z m3868 -32 c-7 -19 -38 -22 -38
-4 0 10 9 16 21 16 12 0 19 -5 17 -12z m282 2 c0 -5 -4 -10 -10 -10 -5 0 -10
5 -10 10 0 6 5 10 10 10 6 0 10 -4 10 -10z m-190 -50 c0 -15 -7 -20 -25 -20
-24 0 -34 18 -18 33 15 15 43 7 43 -13z m106 -27 c-10 -10 -19 5 -10 18 6 11
8 11 12 0 2 -7 1 -15 -2 -18z m-164 -30 c7 -16 21 -38 31 -50 16 -19 18 -25 7
-38 -17 -20 -27 -19 -33 5 -3 11 -12 20 -21 20 -8 0 -22 14 -31 30 -9 17 -20
30 -25 30 -5 0 -7 7 -4 15 4 9 19 15 35 15 23 0 32 -6 41 -27z m108 4 c0 -14
-20 -37 -32 -37 -12 0 -10 24 4 38 16 16 28 15 28 -1z m-4376 -565 c2 -4 1
-14 -4 -21 -10 -17 -31 -5 -23 14 6 16 19 20 27 7z m94 -9 c-5 -26 -38 -29
-38 -4 0 15 6 21 21 21 14 0 19 -5 17 -17z m-138 -42 c0 -17 -12 -41 -21 -41
-5 0 -9 11 -9 25 0 16 6 25 15 25 8 0 15 -4 15 -9z m80 -25 c0 -17 -14 -29
-23 -20 -8 8 3 34 14 34 5 0 9 -6 9 -14z m4947 -18 c-3 -7 -5 -2 -5 12 0 14 2
19 5 13 2 -7 2 -19 0 -25z m58 -56 c-9 -23 -24 3 -17 30 4 18 6 19 14 4 5 -10
7 -25 3 -34z m-5055 4 c0 -16 -26 -46 -41 -46 -5 0 -9 -9 -9 -21 0 -11 -5 -19
-11 -17 -15 5 -15 8 4 56 12 30 23 42 37 42 11 0 20 -6 20 -14z m5106 -73
c-10 -10 -19 5 -10 18 6 11 8 11 12 0 2 -7 1 -15 -2 -18z m1059 -18 c55 -8
134 -24 175 -35 41 -11 85 -23 98 -27 49 -12 20 -30 -77 -46 -205 -34 -384
-162 -589 -424 -39 -51 -72 -95 -72 -97 0 -3 -13 -24 -28 -48 -99 -150 -140
-220 -217 -378 -56 -113 -115 -249 -115 -263 0 -7 -8 -28 -18 -47 -10 -19 -27
-61 -37 -93 -11 -33 -27 -63 -36 -67 -38 -21 -290 123 -336 192 -26 39 -72
188 -85 273 -13 84 -21 478 -11 550 7 49 12 62 32 71 13 7 28 20 33 28 5 9 14
16 20 16 7 0 21 8 32 18 66 58 328 198 486 260 162 64 316 99 530 121 110 12
106 12 215 -4z m-3502 -90 c1 -5 -6 -11 -15 -13 -11 -2 -18 3 -18 13 0 17 30
18 33 0z m2477 -5 c0 -5 -4 -10 -10 -10 -5 0 -10 5 -10 10 0 6 5 10 10 10 6 0
10 -4 10 -10z m-214 -196 c-42 -37 -62 -43 -52 -18 3 9 6 21 6 28 0 12 70 36
80 28 3 -2 -13 -19 -34 -38z m-1329 -1852 c8 -20 26 -60 39 -88 13 -28 24 -56
24 -62 0 -14 -44 -27 -59 -17 -6 3 -42 6 -80 6 -46 0 -74 5 -81 14 -6 8 -10
44 -8 91 3 74 4 79 28 85 14 4 39 11 55 16 40 13 63 0 82 -45z m953 -28 c0
-16 -16 -19 -25 -4 -8 13 4 32 16 25 5 -4 9 -13 9 -21z m-185 -38 c-4 -22 -14
-54 -22 -70 -15 -28 -16 -29 -29 -11 -12 16 -12 21 1 35 8 9 15 30 15 46 0 32
17 57 32 48 5 -4 6 -25 3 -48z m152 -48 c-3 -8 -6 -5 -6 6 -1 11 2 17 5 13 3
-3 4 -12 1 -19z m-247 -8 c0 -5 -4 -10 -10 -10 -5 0 -10 5 -10 10 0 6 5 10 10
10 6 0 10 -4 10 -10z m66 -74 c7 -29 -1 -46 -22 -46 -20 0 -28 24 -14 49 14
28 28 26 36 -3z m579 -116 c3 -5 1 -10 -4 -10 -6 0 -11 5 -11 10 0 6 2 10 4
10 3 0 8 -4 11 -10z m-488 -92 c-3 -7 -5 -2 -5 12 0 14 2 19 5 13 2 -7 2 -19
0 -25z m-857 -273 c14 -16 6 -35 -16 -35 -8 0 -14 10 -14 25 0 28 12 32 30 10z
m196 4 c-22 -5 -43 -6 -48 -1 -5 5 13 9 39 9 l48 1 -39 -9z m204 -34 c0 -17
-45 -21 -55 -6 -4 8 4 12 48 20 4 0 7 -6 7 -14z m2005 -35 c-3 -5 -10 -10 -16
-10 -5 0 -9 5 -9 10 0 6 7 10 16 10 8 0 12 -4 9 -10z m-2155 -9 c0 -11 -48
-24 -61 -16 -5 4 -7 11 -4 16 8 12 65 12 65 0z m-255 -29 c0 -18 -20 -15 -23
4 -3 10 1 15 10 12 7 -3 13 -10 13 -16z m-1663 -190 c7 -10 21 -21 31 -25 10
-4 15 -11 12 -17 -11 -17 -61 -11 -80 10 -10 11 -24 20 -32 20 -14 0 -17 12
-6 23 13 14 62 6 75 -11z m907 12 c21 -5 31 -12 31 -25 0 -17 -9 -19 -105 -19
-98 0 -105 1 -105 20 0 17 8 20 68 23 37 2 70 4 73 5 4 1 21 -1 38 -4z m-699
-19 c0 -8 -9 -15 -20 -15 -11 0 -20 7 -20 15 0 8 9 15 20 15 11 0 20 -7 20
-15z m-310 -31 c0 -9 -11 -14 -32 -14 l-33 1 24 19 c24 21 41 19 41 -6z m-120
-4 c0 -13 -7 -20 -20 -20 -22 0 -28 25 -7 33 22 10 27 7 27 -13z m1190 -57 c0
-28 -3 -34 -10 -23 -13 20 -13 60 0 60 6 0 10 -17 10 -37z m-1617 -102 c11
-11 -43 -19 -168 -26 -180 -11 -388 -47 -570 -97 -38 -11 -95 -25 -125 -32
-89 -21 -144 -39 -165 -53 -11 -7 -33 -13 -49 -13 -16 0 -37 -6 -45 -14 -9 -8
-38 -21 -66 -30 -27 -9 -68 -25 -90 -36 -22 -10 -98 -46 -170 -79 -71 -34
-137 -66 -145 -71 -8 -6 -29 -17 -46 -25 -17 -7 -36 -21 -44 -29 -7 -9 -16
-16 -21 -16 -5 0 -66 -39 -137 -86 -169 -113 -186 -126 -228 -168 -39 -39 -54
-45 -54 -20 0 19 87 119 127 145 15 10 55 39 88 64 33 25 70 49 82 54 11 6 24
14 27 19 3 6 27 21 53 35 27 14 68 36 93 50 86 49 333 167 347 167 8 0 27 7
41 15 158 86 684 232 907 251 39 3 72 8 75 11 8 8 274 -8 283 -16z m227 -21
c0 -5 -5 -10 -11 -10 -5 0 -7 5 -4 10 3 6 8 10 11 10 2 0 4 -4 4 -10z m2213
-202 c50 -11 58 -23 30 -44 -17 -12 -17 -13 2 -20 11 -4 27 -16 36 -26 14 -17
22 -18 82 -10 42 5 70 5 74 -1 3 -5 24 -6 48 -3 31 5 45 3 55 -9 17 -21 85
-38 121 -30 19 4 34 16 39 31 11 29 24 30 50 4 24 -24 25 -38 5 -64 -22 -29
-18 -51 10 -70 15 -10 25 -26 25 -40 0 -43 25 -52 74 -25 75 39 82 47 68 69
-14 23 -16 47 -3 54 10 6 158 -34 213 -58 20 -9 41 -23 46 -32 5 -8 20 -21 33
-28 31 -15 32 -41 1 -40 -14 0 -36 -12 -55 -33 -17 -18 -39 -33 -48 -33 -22 0
-69 55 -69 81 0 10 -5 19 -11 19 -5 0 -7 -5 -4 -10 4 -7 -7 -8 -34 -4 -32 5
-42 3 -47 -9 -10 -27 11 -71 39 -85 15 -7 27 -18 27 -23 0 -6 14 -15 30 -21
53 -18 64 -78 15 -78 -45 0 -75 -18 -75 -44 0 -14 -5 -28 -11 -32 -13 -7 38
-41 78 -50 43 -10 123 -53 129 -69 3 -7 16 -16 29 -19 31 -8 85 -83 85 -118 0
-40 -47 -107 -87 -123 l-34 -14 7 -88 c5 -75 4 -91 -10 -102 -31 -26 -65 -5
-91 54 -17 38 -34 59 -57 71 -17 9 -38 23 -46 31 -20 19 -34 3 -30 -33 2 -21
9 -30 24 -32 14 -2 27 -17 38 -45 19 -48 8 -71 -22 -44 -28 25 -44 21 -40 -10
2 -20 -2 -28 -12 -28 -20 0 -27 65 -8 76 10 7 11 12 1 29 -18 28 -17 115 2
130 25 21 17 58 -20 98 l-35 37 -21 -24 c-20 -24 -21 -25 -63 -9 l-44 16 -15
-38 c-12 -30 -12 -37 -2 -33 24 9 31 -31 25 -152 -6 -117 -5 -121 18 -143 13
-12 27 -20 30 -18 4 2 9 66 11 142 3 140 10 174 37 174 21 0 23 -10 27 -153 4
-127 4 -129 -20 -138 -27 -10 -29 -22 -7 -43 9 -9 19 -28 23 -43 4 -16 20 -33
39 -42 44 -22 40 -38 -10 -43 -46 -5 -80 13 -77 41 3 32 -1 41 -19 41 -31 0
-42 -20 -35 -68 5 -37 3 -47 -12 -58 -18 -13 -18 -14 3 -14 12 0 22 -6 22 -14
0 -12 11 -13 53 -9 50 5 53 4 92 -36 31 -32 47 -41 75 -41 l34 0 -38 -39 c-26
-27 -68 -51 -139 -81 -56 -23 -115 -48 -132 -55 -90 -40 -153 -64 -180 -71
-16 -4 -41 -12 -55 -19 -89 -44 -424 -137 -500 -139 l-35 -1 -3 460 c-4 631 6
1061 25 1081 10 10 20 11 31 5 12 -7 22 -5 35 7 17 15 19 15 28 -1 13 -22 65
-23 73 -1 10 26 7 34 -14 34 -11 0 -20 7 -20 15 0 8 6 15 14 15 8 0 16 -7 20
-15 3 -10 19 -15 42 -15 31 0 45 8 81 45 24 25 43 54 43 65 0 25 29 38 40 19
5 -7 6 -25 3 -40 -4 -20 0 -30 14 -38 17 -8 24 -5 42 19 12 17 28 30 36 30 22
0 18 21 -4 27 -11 3 -25 18 -31 34 -9 20 -19 29 -36 29 -49 0 -174 23 -191 35
-15 11 -15 15 -4 29 20 24 6 31 -23 12 -14 -9 -45 -16 -70 -16 -28 0 -46 -5
-49 -14 -8 -19 1 -26 33 -26 32 0 53 -21 44 -44 -7 -20 -39 -29 -85 -24 -31 3
-34 6 -32 32 1 16 -4 41 -12 57 -29 55 -11 88 38 70 33 -12 134 -1 149 16 20
25 -24 53 -83 53 -43 0 -49 3 -49 21 0 19 4 20 58 14 31 -3 78 -11 105 -17z
m270 -65 c-7 -2 -21 -2 -30 0 -10 3 -4 5 12 5 17 0 24 -2 18 -5z m170 -28 c-3
-14 -29 -18 -61 -10 -21 5 -23 8 -11 16 18 12 75 7 72 -6z m-383 -187 c0 -25
-47 -58 -81 -58 -27 0 -24 9 19 46 44 39 62 42 62 12z m-1588 -231 c10 -16 1
-22 -47 -35 -22 -6 -60 -17 -85 -26 -25 -8 -72 -23 -105 -32 -33 -10 -85 -28
-115 -42 -30 -13 -75 -33 -100 -43 -25 -11 -62 -28 -82 -39 -75 -41 -109 -12
-41 35 21 14 43 25 49 25 6 0 22 8 35 19 46 36 134 78 189 90 53 11 74 19 150
54 39 18 139 14 152 -6z m-412 -1 c0 -18 -19 -33 -52 -41 -15 -4 -32 -13 -39
-21 -6 -8 -20 -14 -30 -14 -35 0 -19 21 36 46 30 14 57 30 60 35 9 14 25 11
25 -5z m3395 -36 c3 -5 1 -10 -4 -10 -6 0 -11 5 -11 10 0 6 2 10 4 10 3 0 8
-4 11 -10z m-495 -50 c0 -5 -4 -10 -10 -10 -5 0 -10 5 -10 10 0 6 5 10 10 10
6 0 10 -4 10 -10z m555 0 c3 -5 2 -10 -4 -10 -5 0 -13 5 -16 10 -3 6 -2 10 4
10 5 0 13 -4 16 -10z m133 -98 c2 -7 -3 -12 -12 -12 -9 0 -16 7 -16 16 0 17
22 14 28 -4z m124 -129 c15 -16 40 -41 57 -58 29 -28 30 -30 10 -33 -14 -2
-33 9 -57 35 -20 21 -46 43 -56 49 -12 6 -16 15 -12 22 11 19 29 14 58 -15z
m-3712 -275 c0 -13 -40 -58 -51 -58 -6 0 -29 53 -29 67 0 2 8 2 18 -1 9 -3 24
-1 32 4 16 10 30 4 30 -12z m284 -3 c3 -13 15 -29 26 -35 11 -6 20 -20 20 -32
0 -12 7 -30 16 -39 15 -17 15 -21 1 -42 -12 -19 -13 -31 -4 -66 9 -35 9 -44
-3 -51 -10 -6 -22 -2 -41 16 -21 20 -32 23 -60 18 -45 -9 -59 -21 -59 -53 0
-29 -16 -51 -37 -51 -7 0 -13 10 -13 23 0 13 -6 32 -14 42 -12 16 -16 17 -30
6 -9 -7 -16 -24 -16 -37 0 -12 -4 -26 -10 -29 -5 -3 -10 -17 -10 -29 0 -13
-12 -36 -26 -51 -22 -24 -25 -34 -20 -69 5 -26 2 -51 -7 -71 -29 -60 -48 -161
-36 -192 19 -51 62 -104 96 -118 23 -10 33 -21 33 -36 0 -20 -4 -21 -41 -15
l-41 7 7 -31 c7 -32 -11 -49 -37 -36 -7 4 -29 15 -48 25 -26 14 -40 16 -54 9
-23 -12 -94 -6 -211 20 -49 11 -112 23 -140 26 -56 8 -224 55 -241 68 -13 10
-6 39 45 191 24 71 42 102 86 154 57 67 65 87 40 97 -21 8 -19 42 5 66 25 25
60 26 60 2 0 -10 -9 -25 -20 -35 -20 -16 -27 -37 -13 -37 4 0 27 20 52 44 107
104 172 156 194 156 13 0 43 14 67 31 49 35 60 29 60 -34 0 -25 7 -43 20 -54
24 -21 26 -63 4 -104 -30 -59 3 -79 49 -29 30 32 55 38 75 18 25 -25 17 45 -9
89 -19 31 -20 34 -3 85 9 29 21 60 25 68 5 8 13 24 18 36 13 30 89 87 106 80
9 -3 15 -19 15 -41 0 -19 3 -35 8 -35 12 0 51 46 61 74 14 34 47 35 55 1z
m-357 -116 c-5 -37 -24 -65 -35 -54 -3 2 -1 25 2 50 5 31 12 45 23 45 13 0 15
-8 10 -41z m-277 -28 c0 -37 -19 -52 -77 -59 -26 -3 -68 -17 -93 -32 -84 -50
-113 -44 -125 22 -8 43 9 57 44 39 16 -9 24 -7 43 13 23 24 91 42 176 45 29 1
32 -2 32 -28z m3032 -56 c0 -5 -5 -11 -11 -13 -6 -2 -11 4 -11 13 0 9 5 15 11
13 6 -2 11 -8 11 -13z m-3482 -89 c5 -14 3 -29 -7 -44 -13 -21 -13 -26 3 -43
22 -24 26 -24 57 5 28 26 79 42 97 31 6 -4 8 -16 4 -28 -4 -12 -7 -32 -6 -44
1 -12 -13 -41 -31 -65 -50 -66 -63 -96 -49 -110 7 -7 12 -28 12 -48 0 -29 -10
-47 -51 -93 -45 -51 -55 -57 -89 -57 -21 0 -65 11 -97 24 -32 13 -71 27 -88
32 -16 5 -31 17 -33 26 -2 9 20 51 47 93 28 42 51 80 51 84 0 7 45 90 87 160
12 20 27 47 33 61 24 54 43 59 60 16z m3536 -88 c8 -12 -24 -40 -37 -32 -5 3
-9 14 -9 25 0 21 34 27 46 7z"/>
<path d="M7990 8656 c0 -8 5 -18 10 -21 6 -3 10 3 10 14 0 12 -4 21 -10 21 -5
0 -10 -6 -10 -14z"/>
<path d="M7524 8276 c-4 -10 -2 -22 4 -28 8 -8 13 -7 18 6 4 10 2 22 -4 28 -8
8 -13 7 -18 -6z"/>
<path d="M7437 8175 c-34 -28 -34 -35 1 -35 29 0 52 16 52 36 0 22 -27 22 -53
-1z"/>
<path d="M7551 8136 c-7 -9 -24 -16 -37 -16 -14 0 -30 -10 -40 -25 -9 -14 -21
-25 -26 -25 -6 0 -19 -11 -30 -25 -11 -14 -26 -25 -34 -25 -8 0 -14 -5 -14
-12 0 -6 -9 -21 -20 -33 -23 -24 -38 -85 -22 -85 6 0 26 13 44 29 55 49 139
115 165 129 32 18 49 56 37 83 -9 19 -11 20 -23 5z"/>
<path d="M7378 8109 c-26 -15 -22 -39 5 -39 30 0 36 6 30 31 -6 22 -11 23 -35
8z"/>
<path d="M8725 8020 c-3 -5 3 -10 14 -10 12 0 21 5 21 10 0 6 -6 10 -14 10 -8
0 -18 -4 -21 -10z"/>
<path d="M8623 7993 c-18 -6 -16 -23 1 -23 17 0 30 16 19 23 -5 2 -14 2 -20 0z"/>
<path d="M8530 7950 c0 -5 5 -10 10 -10 6 0 10 5 10 10 0 6 -4 10 -10 10 -5 0
-10 -4 -10 -10z"/>
<path d="M8695 7905 c-19 -15 -18 -15 15 -13 19 2 34 8 33 13 -3 17 -27 17
-48 0z"/>
<path d="M8348 7893 c6 -2 18 -2 25 0 6 3 1 5 -13 5 -14 0 -19 -2 -12 -5z"/>
<path d="M8920 7879 c0 -5 5 -7 10 -4 6 3 10 8 10 11 0 2 -4 4 -10 4 -5 0 -10
-5 -10 -11z"/>
<path d="M8248 7863 c7 -3 16 -2 19 1 4 3 -2 6 -13 5 -11 0 -14 -3 -6 -6z"/>
<path d="M8480 7840 c0 -5 5 -10 10 -10 6 0 10 5 10 10 0 6 -4 10 -10 10 -5 0
-10 -4 -10 -10z"/>
<path d="M8706 7815 c-11 -8 -17 -18 -13 -21 11 -11 57 6 57 21 0 19 -19 19
-44 0z"/>
<path d="M8630 7800 c0 -5 12 -10 26 -10 14 0 23 4 19 10 -3 6 -15 10 -26 10
-10 0 -19 -4 -19 -10z"/>
<path d="M8250 7770 c0 -6 11 -8 28 -4 39 10 40 14 4 14 -18 0 -32 -5 -32 -10z"/>
<path d="M8451 7746 c-8 -10 -9 -16 -1 -21 15 -9 52 5 47 18 -6 18 -32 20 -46
3z"/>
<path d="M7275 7710 c-4 -7 -10 -40 -12 -74 -5 -57 -2 -67 41 -156 58 -118 79
-126 84 -34 3 53 -2 73 -38 155 -45 103 -63 129 -75 109z"/>
<path d="M8705 7710 c-3 -5 -1 -10 4 -10 6 0 11 5 11 10 0 6 -2 10 -4 10 -3 0
-8 -4 -11 -10z"/>
<path d="M8323 7703 c-7 -2 -13 -9 -13 -15 0 -12 41 -6 41 7 1 12 -11 15 -28
8z"/>
<path d="M8625 7690 c-3 -5 -2 -10 4 -10 5 0 13 5 16 10 3 6 2 10 -4 10 -5 0
-13 -4 -16 -10z"/>
<path d="M8525 7660 c-8 -13 15 -13 35 0 12 8 11 10 -7 10 -12 0 -25 -4 -28
-10z"/>
<path d="M8793 7658 c-13 -6 -23 -15 -23 -20 0 -11 41 -10 59 1 7 5 10 14 7
20 -9 13 -14 13 -43 -1z"/>
<path d="M9140 7660 c0 -5 4 -10 9 -10 6 0 13 5 16 10 3 6 -1 10 -9 10 -9 0
-16 -4 -16 -10z"/>
<path d="M8470 7645 c-7 -9 -11 -18 -8 -20 9 -10 38 7 38 21 0 18 -14 18 -30
-1z"/>
<path d="M8968 7603 c7 -3 16 -2 19 1 4 3 -2 6 -13 5 -11 0 -14 -3 -6 -6z"/>
<path d="M8590 7580 c-12 -8 -11 -10 8 -10 12 0 22 5 22 10 0 13 -11 13 -30 0z"/>
<path d="M8918 7583 c7 -3 16 -2 19 1 4 3 -2 6 -13 5 -11 0 -14 -3 -6 -6z"/>
<path d="M8515 7560 c-3 -5 3 -10 14 -10 12 0 21 5 21 10 0 6 -6 10 -14 10 -8
0 -18 -4 -21 -10z"/>
<path d="M8691 7516 c-30 -6 -56 -17 -59 -25 -4 -11 0 -12 14 -6 11 4 36 11
57 15 21 4 44 13 50 19 13 13 10 13 -62 -3z"/>
<path d="M6555 7496 c-21 -32 -17 -105 7 -120 9 -5 19 -8 22 -6 2 3 6 36 7 74
3 76 -9 94 -36 52z"/>
<path d="M9245 7500 c-3 -5 3 -10 14 -10 11 0 23 5 26 10 3 6 -3 10 -14 10
-11 0 -23 -4 -26 -10z"/>
<path d="M6424 7477 c-3 -9 0 -25 6 -37 6 -12 18 -44 26 -71 11 -36 20 -49 34
-49 26 0 33 16 18 42 -7 13 -20 45 -28 73 -16 50 -44 72 -56 42z"/>
<path d="M8887 7483 c-14 -13 -6 -24 15 -21 27 4 36 28 11 28 -11 0 -23 -3
-26 -7z"/>
<path d="M6627 7463 c-10 -9 -9 -103 1 -103 17 0 32 26 32 56 0 31 -21 60 -33
47z"/>
<path d="M8515 7450 c-3 -5 3 -10 14 -10 11 0 23 5 26 10 3 6 -3 10 -14 10
-11 0 -23 -4 -26 -10z"/>
<path d="M8790 7450 c0 -12 8 -12 35 0 18 8 17 9 -7 9 -16 1 -28 -3 -28 -9z"/>
<path d="M9025 7431 c-6 -5 -27 -14 -48 -21 -36 -11 -42 -30 -9 -30 18 1 93
60 76 60 -5 0 -14 -4 -19 -9z"/>
<path d="M6194 7397 c-19 -17 -25 -29 -20 -42 6 -17 7 -17 25 0 11 9 28 15 38
13 15 -3 19 -15 21 -66 3 -61 21 -88 23 -34 7 136 -24 183 -87 129z"/>
<path d="M8670 7410 c0 -5 7 -10 15 -10 8 0 15 5 15 10 0 6 -7 10 -15 10 -8 0
-15 -4 -15 -10z"/>
<path d="M6342 7384 c4 -21 22 -23 26 -1 2 10 -3 17 -13 17 -10 0 -15 -6 -13
-16z"/>
<path d="M9801 7335 l1 -60 9 44 c5 26 5 50 -1 60 -7 11 -9 -2 -9 -44z"/>
<path d="M8760 7352 c0 -14 11 -21 26 -15 21 8 17 23 -6 23 -11 0 -20 -4 -20
-8z"/>
<path d="M9882 7145 c2 -118 6 -215 9 -215 11 0 16 157 11 298 -8 215 -23 153
-20 -83z"/>
<path d="M6080 7335 c0 -32 65 -155 82 -155 31 0 29 19 -9 92 -36 69 -73 101
-73 63z"/>
<path d="M6374 7306 c-4 -9 -4 -20 0 -23 3 -4 12 -1 18 5 9 9 9 15 0 24 -9 9
-13 7 -18 -6z"/>
<path d="M8615 7291 c-10 -18 17 -23 33 -7 15 15 15 16 -5 16 -12 0 -24 -4
-28 -9z"/>
<path d="M9123 7259 c-40 -12 -41 -17 -6 -45 l27 -21 -32 -17 c-46 -24 -42
-46 8 -46 30 0 40 4 40 16 0 9 8 22 17 29 15 11 15 14 -5 30 -11 10 -19 22
-16 27 3 4 35 8 72 9 65 1 66 1 37 14 -34 16 -95 18 -142 4z"/>
<path d="M9577 7243 c-13 -12 -7 -58 9 -81 49 -71 141 -30 120 53 -8 30 -26
33 -26 4 0 -27 -24 -19 -28 9 -3 17 -10 22 -36 22 -18 0 -36 -3 -39 -7z"/>
<path d="M9776 7214 c-10 -25 -7 -169 3 -158 11 11 21 174 10 174 -4 0 -10 -7
-13 -16z"/>
<path d="M8895 7189 c-4 -6 -5 -12 -2 -15 7 -7 37 7 37 17 0 13 -27 11 -35 -2z"/>
<path d="M5920 7175 c-7 -9 -22 -14 -34 -13 -16 2 -22 -3 -24 -24 -3 -23 1
-28 18 -28 14 0 24 8 27 21 5 18 11 20 42 14 20 -3 42 -14 49 -23 11 -14 14
-15 21 -3 13 20 3 40 -30 56 -36 19 -53 19 -69 0z"/>
<path d="M5807 7133 c-15 -14 -6 -47 18 -69 14 -13 25 -32 25 -42 0 -11 7 -25
15 -32 12 -10 16 -8 25 14 7 20 16 26 40 26 33 0 40 19 15 40 -12 10 -19 10
-27 2 -22 -22 -48 -12 -74 28 -29 44 -28 43 -37 33z"/>
<path d="M5725 7090 c-3 -5 8 -28 24 -50 16 -23 32 -47 35 -53 3 -9 8 -8 15 3
17 24 13 37 -20 75 -32 36 -44 42 -54 25z"/>
<path d="M5575 7061 c-3 -5 2 -16 10 -24 8 -9 15 -26 15 -40 0 -13 9 -32 20
-42 11 -10 20 -24 20 -32 0 -18 39 -16 47 3 3 9 -3 21 -16 30 -11 8 -21 22
-21 29 0 8 -11 22 -25 31 -14 9 -25 25 -25 35 0 20 -15 26 -25 10z"/>
<path d="M5670 7043 c0 -10 9 -29 20 -43 11 -14 20 -31 20 -37 0 -15 26 -17
34 -4 10 16 -38 101 -56 101 -11 0 -18 -7 -18 -17z"/>
<path d="M8778 7043 c7 -3 16 -2 19 1 4 3 -2 6 -13 5 -11 0 -14 -3 -6 -6z"/>
<path d="M5495 7007 c-4 -10 -5 -21 -1 -24 10 -10 18 4 13 24 -4 17 -4 17 -12
0z"/>
<path d="M8665 7011 c-3 -5 -1 -12 5 -16 12 -7 30 2 30 16 0 12 -27 12 -35 0z"/>
<path d="M8965 7010 c-3 -5 1 -10 9 -10 8 0 18 5 21 10 3 6 -1 10 -9 10 -8 0
-18 -4 -21 -10z"/>
<path d="M9750 6965 c0 -19 4 -35 9 -35 5 0 9 16 9 35 0 19 -4 35 -9 35 -5 0
-9 -16 -9 -35z"/>
<path d="M8890 6980 c0 -5 6 -10 14 -10 8 0 18 5 21 10 3 6 -3 10 -14 10 -12
0 -21 -4 -21 -10z"/>
<path d="M5403 6949 c-8 -8 0 -27 30 -69 23 -31 47 -66 54 -76 10 -18 12 -18
28 -3 13 13 15 21 6 37 -6 11 -11 25 -11 31 0 15 32 13 54 -4 19 -15 56 -5 56
15 0 16 -72 41 -117 42 -28 1 -49 8 -59 20 -20 21 -26 22 -41 7z"/>
<path d="M6325 6940 c-8 -12 20 -24 35 -15 5 3 10 10 10 16 0 12 -37 12 -45
-1z"/>
<path d="M8980 6910 c0 -5 7 -7 15 -4 8 4 15 8 15 10 0 2 -7 4 -15 4 -8 0 -15
-4 -15 -10z"/>
<path d="M9795 6900 c3 -5 15 -10 26 -10 10 0 19 5 19 10 0 6 -12 10 -26 10
-14 0 -23 -4 -19 -10z"/>
<path d="M6240 6889 c0 -5 5 -7 10 -4 6 3 10 8 10 11 0 2 -4 4 -10 4 -5 0 -10
-5 -10 -11z"/>
<path d="M6154 6855 c-18 -14 -18 -14 3 -15 23 0 39 15 25 24 -5 3 -18 -1 -28
-9z"/>
<path d="M8810 6855 c-10 -12 -10 -15 3 -15 8 0 20 7 27 15 10 12 10 15 -3 15
-8 0 -20 -7 -27 -15z"/>
<path d="M6299 6820 c-14 -10 -38 -21 -55 -24 -16 -2 -31 -5 -33 -5 -3 -1 0
-6 6 -12 7 -7 22 -7 50 0 50 14 81 36 68 50 -7 6 -19 3 -36 -9z"/>
<path d="M8740 6830 c0 -13 11 -13 30 0 12 8 11 10 -7 10 -13 0 -23 -4 -23
-10z"/>
<path d="M9025 6830 c-8 -13 5 -13 25 0 13 8 13 10 -2 10 -9 0 -20 -4 -23 -10z"/>
<path d="M5253 6815 c-8 -22 85 -123 115 -124 38 -2 26 31 -32 87 -57 55 -73
62 -83 37z"/>
<path d="M6045 6807 c-11 -9 -14 -16 -7 -21 15 -9 42 4 42 20 0 18 -11 18 -35
1z"/>
<path d="M9230 6810 c0 -5 6 -10 14 -10 8 0 18 5 21 10 3 6 -3 10 -14 10 -12
0 -21 -4 -21 -10z"/>
<path d="M6470 6794 c0 -8 5 -12 10 -9 6 3 10 10 10 16 0 5 -4 9 -10 9 -5 0
-10 -7 -10 -16z"/>
<path d="M8940 6801 c0 -5 9 -7 20 -4 11 3 20 7 20 9 0 2 -9 4 -20 4 -11 0
-20 -4 -20 -9z"/>
<path d="M6365 6745 c-29 -13 -90 -60 -70 -53 34 11 105 52 105 59 0 11 2 11
-35 -6z"/>
<path d="M9063 6753 c-20 -8 -15 -23 7 -23 11 0 20 7 20 15 0 15 -6 17 -27 8z"/>
<path d="M6050 6705 c0 -8 6 -15 14 -15 7 0 19 7 26 15 11 13 8 15 -14 15 -16
0 -26 -5 -26 -15z"/>
<path d="M8955 6709 c-4 -6 -5 -13 -2 -16 7 -7 27 6 27 18 0 12 -17 12 -25 -2z"/>
<path d="M9155 6682 c-11 -2 -24 -9 -30 -14 -7 -7 -1 -8 20 -3 44 10 53 26 10
17z"/>
<path d="M5761 6664 c0 -11 3 -14 6 -6 3 7 2 16 -1 19 -3 4 -6 -2 -5 -13z"/>
<path d="M8868 6673 c7 -3 16 -2 19 1 4 3 -2 6 -13 5 -11 0 -14 -3 -6 -6z"/>
<path d="M5951 6659 c-17 -7 -21 -13 -14 -20 11 -11 53 8 53 23 0 10 -9 9 -39
-3z"/>
<path d="M6169 6654 c-11 -14 -10 -15 11 -12 13 1 25 9 28 16 5 17 -23 15 -39
-4z"/>
<path d="M8765 6640 c-3 -5 -2 -10 4 -10 5 0 13 5 16 10 3 6 2 10 -4 10 -5 0
-13 -4 -16 -10z"/>
<path d="M6100 6625 c-21 -25 -1 -31 23 -7 17 18 18 22 5 22 -8 0 -21 -7 -28
-15z"/>
<path d="M9245 6619 c-4 -6 -5 -13 -2 -16 8 -7 47 7 47 18 0 13 -37 11 -45 -2z"/>
<path d="M8700 6610 c0 -5 5 -10 10 -10 6 0 10 5 10 10 0 6 -4 10 -10 10 -5 0
-10 -4 -10 -10z"/>
<path d="M8950 6610 c0 -5 9 -10 19 -10 11 0 23 5 26 10 4 6 -5 10 -19 10 -14
0 -26 -4 -26 -10z"/>
<path d="M6005 6580 c-18 -19 -17 -20 2 -20 22 0 47 23 36 33 -10 11 -19 8
-38 -13z"/>
<path d="M6215 6560 c3 -5 10 -10 16 -10 5 0 9 5 9 10 0 6 -7 10 -16 10 -8 0
-12 -4 -9 -10z"/>
<path d="M9110 6560 c0 -5 7 -10 15 -10 8 0 15 5 15 10 0 6 -7 10 -15 10 -8 0
-15 -4 -15 -10z"/>
<path d="M9339 6554 c-12 -14 -11 -16 5 -13 11 2 21 10 24 17 5 17 -13 15 -29
-4z"/>
<path d="M5925 6550 c-11 -18 26 -23 43 -6 15 15 14 16 -10 16 -15 0 -30 -5
-33 -10z"/>
<path d="M6155 6551 c-3 -6 -22 -18 -41 -26 -19 -8 -34 -19 -34 -26 0 -7 7 -8
18 -4 9 4 27 10 39 12 30 7 49 31 36 44 -8 8 -13 7 -18 0z"/>
<path d="M9280 6520 c0 -5 7 -7 15 -4 8 4 15 8 15 10 0 2 -7 4 -15 4 -8 0 -15
-4 -15 -10z"/>
<path d="M6370 6510 c-8 -5 -12 -12 -8 -15 9 -9 48 4 48 16 0 12 -21 11 -40
-1z"/>
<path d="M9155 6489 c-4 -5 -19 -15 -33 -21 -16 -6 -22 -12 -14 -15 18 -7 84
26 77 38 -8 12 -22 12 -30 -2z"/>
<path d="M6010 6480 c0 -5 6 -10 14 -10 8 0 18 5 21 10 3 6 -3 10 -14 10 -12
0 -21 -4 -21 -10z"/>
<path d="M8880 6479 c-8 -4 -27 -10 -42 -14 -16 -3 -28 -10 -28 -16 0 -7 7 -8
18 -3 9 4 30 8 46 9 17 1 32 7 34 13 5 15 -10 21 -28 11z"/>
<path d="M9350 6450 c0 -5 6 -10 14 -10 8 0 18 5 21 10 3 6 -3 10 -14 10 -12
0 -21 -4 -21 -10z"/>
<path d="M9055 6440 c-3 -5 1 -10 9 -10 8 0 18 5 21 10 3 6 -1 10 -9 10 -8 0
-18 -4 -21 -10z"/>
<path d="M6430 6430 c0 -5 5 -10 10 -10 6 0 10 5 10 10 0 6 -4 10 -10 10 -5 0
-10 -4 -10 -10z"/>
<path d="M6175 6411 c-10 -17 12 -21 25 -6 10 12 10 15 -3 15 -9 0 -18 -4 -22
-9z"/>
<path d="M6380 6400 c0 -5 4 -10 9 -10 6 0 13 5 16 10 3 6 -1 10 -9 10 -9 0
-16 -4 -16 -10z"/>
<path d="M8897 6389 c-17 -10 -23 -29 -9 -29 5 0 16 6 27 13 22 17 7 29 -18
16z"/>
<path d="M9447 6393 c-12 -12 -7 -22 8 -17 8 4 15 10 15 15 0 11 -14 12 -23 2z"/>
<path d="M6073 6375 c-3 -9 -3 -18 -1 -21 9 -9 38 8 38 22 0 19 -29 18 -37 -1z"/>
<path d="M9133 6369 c-25 -9 -30 -19 -10 -19 15 0 43 17 37 23 -3 3 -15 1 -27
-4z"/>
<path d="M6270 6360 c-12 -7 -12 -12 -3 -21 9 -9 16 -9 28 1 29 24 9 42 -25
20z"/>
<path d="M6465 6360 c-3 -5 -4 -14 0 -20 8 -13 35 -1 35 16 0 16 -26 19 -35 4z"/>
<path d="M8838 6362 c-10 -2 -18 -8 -18 -13 0 -11 11 -11 30 1 18 11 11 18
-12 12z"/>
<path d="M9333 6355 c-3 -9 -3 -19 1 -22 8 -9 37 18 30 28 -8 14 -24 11 -31
-6z"/>
<path d="M6193 6328 c-13 -6 -23 -15 -23 -20 0 -14 16 -9 35 12 20 22 19 23
-12 8z"/>
<path d="M9000 6330 c0 -5 7 -10 15 -10 8 0 15 5 15 10 0 6 -7 10 -15 10 -8 0
-15 -4 -15 -10z"/>
<path d="M6395 6310 c-3 -5 -1 -10 4 -10 6 0 11 5 11 10 0 6 -2 10 -4 10 -3 0
-8 -4 -11 -10z"/>
<path d="M8915 6290 c-3 -5 1 -10 9 -10 9 0 16 5 16 10 0 6 -4 10 -9 10 -6 0
-13 -4 -16 -10z"/>
<path d="M6300 6260 c0 -5 4 -10 9 -10 6 0 13 5 16 10 3 6 -1 10 -9 10 -9 0
-16 -4 -16 -10z"/>
<path d="M9070 6250 c0 -5 5 -10 10 -10 6 0 10 5 10 10 0 6 -4 10 -10 10 -5 0
-10 -4 -10 -10z"/>
<path d="M6210 6240 c0 -5 7 -10 16 -10 8 0 12 5 9 10 -3 6 -10 10 -16 10 -5
0 -9 -4 -9 -10z"/>
<path d="M8705 6230 c-11 -17 6 -31 28 -24 31 9 34 14 17 24 -20 13 -37 12
-45 0z"/>
<path d="M6445 6190 c-10 -11 -26 -20 -36 -20 -23 0 -33 -16 -15 -23 8 -3 20
0 26 8 6 8 21 15 33 17 12 2 23 11 25 21 5 23 -11 22 -33 -3z"/>
<path d="M6100 6190 c0 -5 9 -10 20 -10 11 0 20 5 20 10 0 6 -9 10 -20 10 -11
0 -20 -4 -20 -10z"/>
<path d="M8920 6190 c0 -5 9 -10 20 -10 11 0 20 5 20 10 0 6 -9 10 -20 10 -11
0 -20 -4 -20 -10z"/>
<path d="M8765 6141 c-3 -5 -1 -12 5 -16 13 -8 50 3 50 16 0 12 -47 12 -55 0z"/>
<path d="M6277 6133 c-14 -13 -6 -33 12 -33 25 0 38 20 20 31 -17 11 -24 11
-32 2z"/>
<path d="M6545 6130 c-3 -5 -1 -10 4 -10 6 0 11 5 11 10 0 6 -2 10 -4 10 -3 0
-8 -4 -11 -10z"/>
<path d="M9290 6090 c-43 -24 -224 -109 -305 -143 -50 -21 -60 -29 -59 -49 2
-30 43 -139 59 -157 19 -20 35 -5 35 33 0 36 24 63 82 93 20 10 66 33 102 52
36 18 72 31 81 28 13 -6 15 -47 16 -309 0 -310 5 -360 40 -381 21 -13 70 23
95 68 17 32 17 36 -5 114 -28 103 -54 392 -48 536 2 61 2 116 0 123 -7 18 -53
14 -93 -8z"/>
<path d="M6160 6060 c0 -12 8 -12 35 0 18 8 17 9 -7 9 -16 1 -28 -3 -28 -9z"/>
<path d="M6607 6063 c-13 -13 -7 -32 8 -27 8 4 15 12 15 20 0 15 -12 19 -23 7z"/>
<path d="M6388 6053 c7 -3 16 -2 19 1 4 3 -2 6 -13 5 -11 0 -14 -3 -6 -6z"/>
<path d="M6060 6020 c0 -5 7 -10 15 -10 8 0 15 5 15 10 0 6 -7 10 -15 10 -8 0
-15 -4 -15 -10z"/>
<path d="M6499 6014 c-11 -14 -9 -15 16 -12 16 1 30 9 33 16 6 18 -33 15 -49
-4z"/>
<path d="M6591 5861 c-30 -8 -40 -31 -14 -31 18 1 53 22 53 34 0 7 -6 7 -39
-3z"/>
<path d="M6808 5846 c-24 -18 -22 -28 4 -24 13 2 24 11 26 21 4 20 -6 21 -30
3z"/>
<path d="M6295 5820 c-3 -5 -2 -10 4 -10 5 0 13 5 16 10 3 6 2 10 -4 10 -5 0
-13 -4 -16 -10z"/>
<path d="M6733 5823 c-7 -2 -13 -8 -13 -13 0 -10 38 -1 46 11 6 10 -13 11 -33
2z"/>
<path d="M6449 5794 c-11 -14 -10 -15 11 -12 13 1 25 9 28 16 5 17 -23 15 -39
-4z"/>
<path d="M6175 5779 c-4 -6 -4 -13 -1 -16 8 -8 36 5 36 17 0 13 -27 13 -35 -1z"/>
<path d="M6407 5773 c-4 -3 -7 -11 -7 -17 0 -6 5 -5 12 2 6 6 9 14 7 17 -3 3
-9 2 -12 -2z"/>
<path d="M8580 5761 c-124 -45 -207 -171 -186 -284 3 -18 22 -57 41 -86 29
-46 42 -57 87 -73 90 -32 187 -7 257 66 49 50 61 36 61 -68 0 -97 -22 -195
-55 -253 -14 -23 -25 -53 -25 -68 0 -22 4 -26 22 -23 31 4 106 129 143 238 26
74 29 99 29 195 0 78 -5 120 -16 145 -8 19 -20 46 -25 60 -17 42 -98 124 -145
148 -53 26 -121 27 -188 3z m76 -90 c53 -24 144 -139 144 -183 0 -22 -100 -88
-134 -88 -78 0 -156 92 -156 183 0 44 16 68 65 95 27 15 33 15 81 -7z"/>
<path d="M7175 5710 c-3 -5 1 -10 9 -10 9 0 16 5 16 10 0 6 -4 10 -9 10 -6 0
-13 -4 -16 -10z"/>
<path d="M6240 5700 c0 -13 11 -13 30 0 12 8 11 10 -7 10 -13 0 -23 -4 -23
-10z"/>
<path d="M6690 5695 c-10 -12 -10 -15 3 -15 8 0 20 7 27 15 10 12 10 15 -3 15
-8 0 -20 -7 -27 -15z"/>
<path d="M6635 5680 c-3 -5 -1 -10 4 -10 6 0 11 5 11 10 0 6 -2 10 -4 10 -3 0
-8 -4 -11 -10z"/>
<path d="M6863 5683 c-7 -3 -13 -12 -13 -21 0 -15 2 -15 17 1 18 18 16 27 -4
20z"/>
<path d="M6989 5629 c-23 -19 -23 -20 -2 -10 12 6 25 16 28 21 10 16 -1 12
-26 -11z"/>
<path d="M6530 5630 c0 -5 7 -7 15 -4 8 4 15 8 15 10 0 2 -7 4 -15 4 -8 0 -15
-4 -15 -10z"/>
<path d="M6755 5630 c-3 -5 3 -10 14 -10 11 0 23 5 26 10 3 6 -3 10 -14 10
-11 0 -23 -4 -26 -10z"/>
<path d="M6885 5589 c-4 -6 -5 -13 -2 -16 7 -7 27 6 27 18 0 12 -17 12 -25 -2z"/>
<path d="M6340 5554 c0 -9 7 -14 17 -12 25 5 28 28 4 28 -12 0 -21 -6 -21 -16z"/>
<path d="M7290 5560 c0 -5 7 -10 15 -10 8 0 15 5 15 10 0 6 -7 10 -15 10 -8 0
-15 -4 -15 -10z"/>
<path d="M11047 5553 c-13 -12 -7 -23 12 -23 26 0 35 16 15 24 -19 7 -19 7
-27 -1z"/>
<path d="M6788 5543 c7 -3 16 -2 19 1 4 3 -2 6 -13 5 -11 0 -14 -3 -6 -6z"/>
<path d="M6942 5518 c-18 -11 -31 -23 -28 -25 10 -10 65 9 82 28 16 18 16 19
-2 18 -10 0 -34 -10 -52 -21z"/>
<path d="M10957 5516 c-6 -16 2 -28 14 -20 12 7 11 34 0 34 -5 0 -11 -6 -14
-14z"/>
<path d="M7145 5510 c-8 -13 25 -13 45 0 12 8 9 10 -12 10 -15 0 -30 -4 -33
-10z"/>
<path d="M7373 5505 c-3 -9 -3 -18 -1 -21 8 -8 58 15 58 26 0 16 -50 12 -57
-5z"/>
<path d="M7817 5479 c-74 -17 -142 -66 -182 -129 -54 -85 -37 -211 37 -279 86
-80 194 -77 297 10 68 57 71 55 71 -50 0 -97 -15 -165 -55 -250 -35 -73 -42
-105 -27 -115 19 -11 104 102 154 204 29 60 48 154 48 243 0 185 -84 328 -213
362 -64 17 -75 17 -130 4z m58 -104 c85 -50 171 -215 111 -215 -6 0 -24 -11
-40 -25 -22 -18 -41 -25 -73 -25 -38 0 -50 5 -87 43 -45 43 -66 93 -66 153 0
24 9 40 35 63 43 37 65 39 120 6z"/>
<path d="M6810 5460 c0 -5 7 -10 15 -10 8 0 15 5 15 10 0 6 -7 10 -15 10 -8 0
-15 -4 -15 -10z"/>
<path d="M6521 5441 c-10 -7 -10 -10 -1 -16 6 -4 16 -3 22 3 13 13 -4 23 -21
13z"/>
<path d="M10820 5401 c0 -6 5 -13 10 -16 6 -3 10 -15 10 -26 0 -11 7 -19 16
-19 11 0 14 6 8 23 -11 37 -44 65 -44 38z"/>
<path d="M6405 5390 c-18 -8 -17 -9 7 -9 15 -1 30 4 33 9 7 12 -12 12 -40 0z"/>
<path d="M7078 5373 c7 -3 16 -2 19 1 4 3 -2 6 -13 5 -11 0 -14 -3 -6 -6z"/>
<path d="M10760 5360 c0 -11 5 -20 10 -20 6 0 10 9 10 20 0 11 -4 20 -10 20
-5 0 -10 -9 -10 -20z"/>
<path d="M10946 5355 c4 -8 10 -15 15 -15 5 0 9 7 9 15 0 8 -7 15 -15 15 -9 0
-12 -6 -9 -15z"/>
<path d="M7002 5350 c-34 -8 -67 -30 -45 -30 14 0 83 29 83 35 0 3 -1 5 -2 4
-2 -1 -18 -5 -36 -9z"/>
<path d="M6715 5330 c-3 -5 1 -10 9 -10 9 0 16 5 16 10 0 6 -4 10 -9 10 -6 0
-13 -4 -16 -10z"/>
<path d="M10887 5333 c-4 -3 -7 -17 -7 -30 0 -23 1 -23 30 -8 36 19 40 45 7
45 -13 0 -27 -3 -30 -7z"/>
<path d="M10790 5294 c0 -8 5 -12 10 -9 6 3 10 10 10 16 0 5 -4 9 -10 9 -5 0
-10 -7 -10 -16z"/>
<path d="M6850 5280 c0 -5 4 -10 9 -10 6 0 13 5 16 10 3 6 -1 10 -9 10 -9 0
-16 -4 -16 -10z"/>
<path d="M6750 5250 c0 -5 7 -10 15 -10 8 0 15 5 15 10 0 6 -7 10 -15 10 -8 0
-15 -4 -15 -10z"/>
<path d="M6490 5240 c0 -5 5 -10 10 -10 6 0 10 5 10 10 0 6 -4 10 -10 10 -5 0
-10 -4 -10 -10z"/>
<path d="M7232 5198 c-15 -24 -41 -65 -57 -93 -15 -27 -39 -63 -52 -78 -28
-34 -32 -87 -6 -87 10 0 34 19 53 42 26 29 41 40 53 35 9 -3 17 -13 17 -21 0
-8 17 -52 39 -98 61 -131 122 -269 142 -321 21 -53 20 -55 -45 -100 -14 -10
-26 -24 -26 -32 0 -20 54 -20 70 0 7 8 19 15 27 15 8 0 31 9 51 19 47 24 74
36 137 59 38 13 51 23 53 41 4 23 2 24 -45 18 -26 -4 -53 -3 -59 1 -6 4 -23
32 -37 62 -14 30 -43 94 -65 141 -22 47 -43 97 -47 110 -7 22 -61 142 -90 199
-7 14 -15 37 -18 51 -7 29 -43 79 -57 79 -5 0 -22 -19 -38 -42z"/>
<path d="M9345 4989 c-4 -6 -5 -13 -2 -16 7 -7 27 6 27 18 0 12 -17 12 -25 -2z"/>
<path d="M11940 4981 c0 -22 15 -35 30 -26 7 4 7 13 0 26 -14 25 -30 25 -30 0z"/>
<path d="M9122 4914 c-12 -8 -22 -22 -22 -30 0 -24 28 -16 50 16 24 34 10 41
-28 14z"/>
<path d="M9180 4890 c0 -5 9 -10 20 -10 11 0 20 5 20 10 0 6 -9 10 -20 10 -11
0 -20 -4 -20 -10z"/>
<path d="M9160 4729 c0 -5 5 -7 10 -4 6 3 10 8 10 11 0 2 -4 4 -10 4 -5 0 -10
-5 -10 -11z"/>
<path d="M9865 4184 c-22 -9 -60 -19 -85 -24 -137 -27 -210 -51 -210 -71 0 -7
13 -8 33 -4 201 38 367 83 370 100 3 16 -65 15 -108 -1z"/>
<path d="M10055 4148 c-8 -23 8 -44 24 -34 16 10 13 43 -3 49 -9 4 -17 -2 -21
-15z"/>
<path d="M9515 4070 c-4 -6 5 -10 19 -10 14 0 26 5 26 10 0 6 -9 10 -19 10
-11 0 -23 -4 -26 -10z"/>
<path d="M9835 4069 c-10 -15 3 -25 16 -12 7 7 7 13 1 17 -6 3 -14 1 -17 -5z"/>
<path d="M9445 4040 c-4 -6 5 -10 19 -10 14 0 26 5 26 10 0 6 -9 10 -19 10
-11 0 -23 -4 -26 -10z"/>
<path d="M10077 3229 c-9 -6 -23 -22 -31 -37 -27 -54 8 -72 43 -23 32 45 25
80 -12 60z"/>
<path d="M9501 3008 c-32 -32 -32 -48 -2 -48 34 0 67 59 42 74 -5 3 -23 -8
-40 -26z"/>
<path d="M10034 2930 c-4 -16 -18 -42 -32 -57 -29 -31 -31 -67 -7 -112 26 -50
39 -39 49 42 3 21 14 49 26 64 22 29 26 63 8 81 -20 20 -38 13 -44 -18z"/>
<path d="M9397 2759 c1 -78 6 -91 22 -60 7 12 8 39 3 72 -11 79 -27 71 -25
-12z"/>
<path d="M10104 2747 c-8 -22 11 -46 26 -31 7 7 5 17 -4 30 -14 18 -15 18 -22
1z"/>
<path d="M10185 2651 c-3 -5 -1 -12 5 -16 5 -3 10 1 10 9 0 18 -6 21 -15 7z"/>
<path d="M9380 2634 c0 -17 22 -14 28 4 2 7 -3 12 -12 12 -9 0 -16 -7 -16 -16z"/>
<path d="M10050 2631 c0 -11 5 -23 10 -26 6 -3 10 -15 10 -25 0 -10 5 -22 11
-25 10 -7 79 21 79 31 0 3 -14 10 -30 16 -17 5 -35 19 -41 29 -13 25 -39 24
-39 0z"/>
<path d="M10190 2502 c0 -7 -7 -12 -15 -12 -18 0 -35 -31 -35 -64 0 -24 32
-56 56 -56 12 0 13 124 1 137 -4 3 -7 1 -7 -5z"/>
<path d="M10058 2479 c-16 -11 -28 -25 -28 -31 0 -7 4 -7 13 0 7 6 23 8 36 5
25 -6 43 11 34 34 -7 18 -23 16 -55 -8z"/>
<path d="M9608 2297 c-28 -29 -53 -86 -41 -98 8 -8 14 -5 23 11 6 12 20 30 31
41 20 20 25 44 10 54 -5 3 -15 -1 -23 -8z"/>
<path d="M11368 8522 c-9 -2 -19 -9 -22 -17 -6 -16 23 -30 37 -16 14 14 4 37
-15 33z"/>
<path d="M11400 8454 c0 -33 33 -30 38 4 3 17 -2 22 -17 22 -16 0 -21 -6 -21
-26z"/>
<path d="M11254 8275 c-9 -22 1 -29 15 -11 8 10 9 16 1 21 -5 3 -13 -1 -16
-10z"/>
<path d="M11037 3840 c-30 -30 -36 -44 -32 -63 4 -13 2 -43 -5 -65 -8 -32 -18
-45 -43 -56 -38 -18 -201 -46 -226 -39 -24 6 -43 -20 -39 -54 3 -31 -2 -30
118 -13 185 27 230 45 230 88 0 8 10 32 22 53 l22 39 -22 23 c-15 15 -20 30
-16 41 6 15 14 17 50 11 47 -7 84 7 84 30 0 10 -10 15 -28 15 -16 0 -37 7 -48
15 -25 19 -23 19 -67 -25z"/>
<path d="M11316 3852 c-14 -23 53 -52 103 -44 23 3 31 9 29 21 -3 12 -13 15
-40 13 -20 -1 -39 2 -43 8 -7 12 -42 14 -49 2z"/>
<path d="M11560 3819 c7 -11 14 -19 16 -16 7 7 -7 37 -17 37 -6 0 -5 -9 1 -21z"/>
<path d="M11612 3721 c2 -7 7 -12 11 -12 12 1 9 15 -3 20 -7 2 -11 -2 -8 -8z"/>
<path d="M11615 3600 c-3 -5 -1 -10 4 -10 6 0 11 5 11 10 0 6 -2 10 -4 10 -3
0 -8 -4 -11 -10z"/>
<path d="M11453 3468 c-13 -6 -23 -17 -23 -24 0 -19 54 -1 58 19 4 19 -3 20
-35 5z"/>
<path d="M11470 2750 c0 -11 7 -20 15 -20 17 0 18 2 9 24 -9 23 -24 20 -24 -4z"/>
<path d="M9074 3069 c-10 -17 13 -36 27 -22 12 12 4 33 -11 33 -5 0 -12 -5
-16 -11z"/>
<path d="M8126 2585 c-9 -25 -7 -67 3 -61 5 3 12 18 15 32 8 30 -8 55 -18 29z"/>
<path d="M7987 2503 c-12 -11 -8 -23 8 -23 8 0 15 7 15 15 0 16 -12 20 -23 8z"/>
<path d="M6115 12101 c-63 -35 -88 -56 -111 -93 -29 -45 -30 -89 -4 -146 25
-54 74 -77 185 -87 106 -8 137 -19 158 -55 24 -40 13 -75 -32 -105 -46 -32
-74 -31 -105 1 -13 15 -29 23 -35 20 -20 -13 -11 -42 24 -80 29 -32 39 -37 62
-31 52 13 116 58 144 104 45 70 37 136 -24 199 -36 38 -71 49 -184 58 -137 11
-180 59 -114 125 32 32 45 34 87 19 37 -14 50 0 33 35 -22 45 -48 56 -84 36z"/>
<path d="M13109 11973 c-1 -10 -1 -24 0 -31 1 -7 -16 -35 -38 -61 -23 -27 -41
-52 -41 -56 0 -4 -11 -21 -25 -39 -14 -17 -34 -41 -43 -54 -63 -83 -121 -147
-141 -153 -20 -7 -5 -46 23 -61 13 -7 42 -26 66 -41 44 -30 62 -29 42 3 -7 11
-12 26 -12 34 0 23 110 166 128 166 24 0 82 -57 82 -80 0 -10 5 -22 11 -25 14
-9 59 33 59 55 0 9 -26 34 -57 56 -69 48 -70 57 -6 132 l45 52 41 -32 c51 -40
57 -47 57 -75 0 -30 19 -29 53 3 l28 26 -23 25 c-13 14 -43 39 -68 56 -25 16
-68 50 -97 74 -54 46 -82 54 -84 26z"/>
<path d="M5706 11785 l-60 -53 42 -21 c23 -12 49 -34 59 -49 9 -15 24 -34 32
-43 9 -8 45 -53 81 -99 36 -46 75 -92 88 -103 15 -15 22 -32 22 -58 0 -38 0
-38 -62 -57 -50 -16 -73 -18 -113 -11 -27 5 -72 12 -100 16 -27 3 -55 10 -61
14 -6 5 -14 34 -16 65 -5 61 -26 96 -78 132 -61 41 -119 22 -215 -70 -32 -32
-63 -58 -67 -58 -11 0 -42 -50 -35 -57 4 -3 18 -7 32 -9 17 -1 44 -22 78 -61
28 -32 91 -99 139 -148 61 -64 90 -101 94 -124 10 -46 30 -49 71 -10 29 29 63
78 63 92 0 3 -18 7 -40 11 -31 5 -46 15 -75 52 -39 52 -42 66 -20 84 12 10 30
10 88 1 183 -31 204 -27 282 46 23 21 59 50 82 65 53 35 113 87 113 99 0 5
-15 9 -34 9 -32 0 -42 9 -128 112 -145 176 -176 218 -183 249 -4 16 -10 31
-13 33 -4 2 -34 -20 -66 -49z m-206 -361 c65 -55 76 -115 30 -159 l-31 -29
-71 71 c-60 61 -70 75 -64 96 12 48 89 60 136 21z"/>
<path d="M13438 11596 c-58 -17 -140 -76 -165 -119 -38 -64 -54 -138 -44 -194
18 -94 54 -148 142 -214 89 -67 202 -65 329 6 33 18 87 85 106 130 20 50 18
144 -6 200 -25 58 -106 145 -163 173 -55 28 -139 35 -199 18z m220 -93 c123
-98 81 -277 -90 -389 -113 -73 -257 22 -246 162 9 103 66 186 172 247 46 27
116 18 164 -20z"/>
<path d="M14010 11150 c-6 -22 -15 -40 -19 -40 -5 0 -35 -24 -68 -52 -33 -29
-85 -74 -115 -100 -96 -84 -119 -167 -74 -264 40 -85 126 -144 212 -144 33 0
115 32 142 56 190 165 216 184 240 182 36 -4 37 14 1 58 -45 57 -56 61 -72 22
-8 -18 -32 -47 -53 -65 -239 -193 -257 -204 -317 -184 -43 15 -83 57 -90 98
-13 71 16 111 186 252 64 54 106 81 122 81 46 0 30 39 -47 121 -26 28 -36 23
-48 -21z"/>
<path d="M4995 11113 c-42 -55 -42 -74 1 -85 32 -8 124 -86 124 -105 0 -12
-147 -193 -156 -193 -3 0 -29 19 -57 42 -29 24 -54 44 -56 45 -2 1 -6 17 -10
34 -4 18 -12 34 -18 36 -12 4 -126 -128 -117 -136 3 -3 19 -4 37 -3 27 3 44
-7 104 -60 40 -35 110 -93 157 -130 61 -50 88 -78 96 -103 6 -19 17 -35 25
-35 16 0 127 147 116 154 -5 3 -14 -1 -21 -9 -17 -20 -42 -19 -66 3 -10 9 -42
35 -69 57 -58 46 -66 56 -60 72 11 31 140 183 155 183 23 0 160 -128 160 -150
0 -26 28 -33 46 -11 9 10 27 31 41 46 28 32 27 69 -3 73 -11 2 -44 22 -72 45
-205 165 -272 225 -281 250 -14 39 -35 34 -76 -20z"/>
<path d="M14467 10602 c-9 -10 -37 -28 -61 -40 -24 -12 -49 -29 -56 -37 -7 -8
-16 -15 -21 -15 -5 0 -28 -13 -51 -29 -118 -79 -194 -121 -220 -121 -34 0 -35
-10 -3 -58 47 -71 55 -79 65 -62 5 8 10 25 10 37 0 24 27 46 129 108 18 11 52
35 76 52 30 23 45 29 48 20 3 -7 -8 -65 -24 -128 -16 -62 -33 -136 -38 -164
-5 -27 -17 -85 -26 -128 -17 -72 -17 -79 -2 -94 15 -15 19 -14 51 10 19 15 37
27 40 27 3 0 27 15 53 33 27 17 57 37 68 44 11 6 62 37 112 67 58 35 104 56
123 56 21 0 30 5 30 17 0 23 -60 115 -73 110 -5 -1 -15 -17 -21 -34 -8 -23
-34 -47 -93 -86 -45 -30 -97 -67 -116 -81 -69 -53 -70 -43 -21 154 7 30 23 98
35 150 12 52 27 113 34 136 20 63 -10 98 -48 56z"/>
<path d="M4551 10555 c-41 -47 -98 -138 -119 -188 -63 -159 52 -341 236 -372
93 -15 200 39 278 141 37 48 84 138 84 162 0 15 -65 82 -79 82 -19 0 -22 -20
-6 -50 15 -29 15 -35 0 -80 -28 -85 -119 -150 -211 -150 -109 0 -240 107 -251
205 -4 34 0 53 23 95 43 78 84 110 144 110 27 0 51 4 54 8 8 13 -75 72 -100
72 -13 0 -35 -15 -53 -35z"/>
<path d="M14859 9978 c-14 -27 -59 -67 -76 -68 -7 0 -46 -18 -88 -40 -42 -22
-80 -40 -85 -40 -5 0 -32 -13 -60 -30 -33 -19 -65 -30 -90 -30 -21 0 -42 -5
-46 -11 -11 -18 103 -257 145 -302 41 -45 110 -87 155 -96 54 -10 150 8 205
39 25 14 61 47 80 75 33 45 36 56 40 133 3 89 1 98 -77 262 -39 83 -69 130
-82 130 -5 0 -15 -10 -21 -22z m81 -185 c31 -82 35 -123 16 -180 -27 -82 -100
-139 -210 -164 -50 -11 -58 -10 -98 10 -50 26 -68 47 -104 115 -36 70 -24 94
68 138 39 18 117 56 172 84 56 29 109 52 118 53 11 1 23 -17 38 -56z"/>
<path d="M4102 9813 c-49 -69 -66 -160 -39 -213 22 -44 73 -70 137 -70 55 0
138 25 185 57 28 19 89 16 115 -5 30 -25 30 -82 -1 -121 -20 -25 -32 -30 -66
-30 -36 -1 -43 -4 -43 -21 0 -21 45 -50 79 -50 46 0 111 109 111 187 0 77 -43
133 -118 153 -55 14 -86 8 -195 -42 -91 -41 -120 -44 -151 -12 -37 36 -1 106
64 128 46 15 48 32 4 51 -50 21 -60 19 -82 -12z"/>
<path d="M4020 9371 c-136 -42 -233 -195 -215 -339 9 -72 20 -96 72 -159 35
-42 54 -55 105 -72 166 -56 322 15 376 171 27 81 28 137 2 208 -48 133 -218
228 -340 191z m137 -130 c124 -37 195 -131 163 -216 -30 -80 -109 -135 -192
-135 -50 0 -168 36 -209 63 -15 10 -37 41 -49 70 -22 50 -22 53 -6 104 23 72
69 115 138 129 60 13 58 13 155 -15z"/>
<path d="M14670 9220 c0 -12 9 -39 21 -61 19 -39 21 -40 43 -25 13 8 51 18 85
21 l62 5 20 -47 c37 -86 36 -107 -5 -147 -21 -19 -48 -42 -62 -50 -18 -13 -24
-25 -24 -54 0 -20 7 -46 15 -56 8 -11 15 -29 15 -41 0 -12 3 -25 7 -28 10 -11
33 14 33 35 0 29 59 106 92 120 15 7 28 17 28 21 0 5 39 46 87 90 169 158 175
165 171 189 l-3 23 -255 3 c-140 1 -268 7 -284 12 -41 14 -46 13 -46 -10z
m416 -72 c4 -6 -3 -19 -17 -30 -13 -10 -34 -28 -45 -38 -12 -11 -26 -20 -31
-20 -21 0 -42 77 -26 93 11 12 111 8 119 -5z"/>
<path d="M15300 8911 c-33 -9 -39 -38 -8 -43 18 -2 27 -15 42 -59 29 -86 31
-83 -129 -124 -33 -8 -85 -22 -115 -31 -109 -32 -149 -38 -177 -25 -35 16 -39
8 -24 -47 8 -26 19 -67 26 -92 13 -49 28 -59 33 -22 2 12 13 29 25 36 22 15
188 64 287 86 30 7 68 17 83 23 19 7 31 7 39 -1 15 -15 29 -101 22 -139 -6
-31 -5 -33 24 -33 35 0 66 26 58 49 -25 80 -86 299 -96 347 -17 78 -33 91 -90
75z"/>
<path d="M3667 8663 c-26 -103 -22 -119 23 -91 19 12 67 2 233 -48 27 -8 67
-19 90 -24 55 -11 115 -34 129 -48 8 -8 7 -22 -8 -53 -19 -44 -95 -100 -209
-156 l-53 -26 -54 56 -54 57 -60 0 c-53 0 -63 -3 -86 -27 -37 -40 -53 -79 -67
-163 -7 -41 -18 -85 -23 -97 -16 -32 -2 -44 42 -37 24 4 92 -4 182 -20 228
-43 250 -49 279 -73 35 -29 39 -22 46 72 5 61 3 75 -9 75 -8 0 -19 -5 -26 -12
-8 -8 -30 -8 -87 2 l-76 13 3 30 c3 27 12 35 96 78 52 26 105 58 119 71 36 33
63 91 63 136 0 21 5 43 11 49 6 6 18 40 26 75 8 34 17 73 20 86 6 25 -9 29
-27 7 -7 -8 -24 -15 -38 -15 -34 0 -204 43 -324 82 -32 10 -66 18 -77 18 -12
0 -28 11 -37 25 -9 14 -19 25 -23 25 -4 0 -14 -30 -24 -67z m119 -454 c49 -30
58 -51 40 -94 -17 -41 -34 -43 -115 -19 -29 8 -55 13 -58 10 -3 -3 -14 -1 -24
5 -27 14 -24 52 7 88 22 26 33 31 71 31 29 0 58 -8 79 -21z"/>
<path d="M15489 8314 c-9 -19 -23 -30 -39 -32 -14 -1 -54 -9 -90 -17 -168 -39
-290 -54 -345 -44 -26 5 -30 -20 -15 -103 12 -71 24 -84 40 -44 5 15 19 25 37
28 15 3 71 15 123 26 199 43 292 56 313 43 29 -19 41 -1 28 45 -6 22 -11 51
-11 65 0 14 -6 34 -14 44 -13 17 -14 17 -27 -11z"/>
<path d="M15283 7980 c-67 -14 -110 -39 -157 -91 -50 -55 -66 -105 -66 -203 0
-119 67 -219 178 -268 40 -17 62 -19 140 -15 67 3 97 9 110 21 10 9 23 16 29
16 6 0 29 20 50 44 60 68 82 202 49 299 -25 75 -42 102 -88 141 -60 52 -159
74 -245 56z m211 -122 c37 -20 63 -53 75 -97 30 -106 -42 -215 -157 -239 -91
-19 -181 -16 -220 8 -54 33 -74 75 -70 151 3 55 8 71 32 100 36 42 99 80 151
90 48 9 162 1 189 -13z"/>
<path d="M3496 7808 c-11 -33 -15 -147 -7 -152 5 -4 22 5 36 20 22 22 32 25
58 20 18 -4 82 -11 142 -17 165 -14 194 -22 227 -61 25 -28 28 -40 25 -80 -3
-30 -14 -63 -32 -89 l-27 -42 -157 6 c-86 4 -185 13 -221 21 -36 8 -66 13 -68
11 -9 -8 -23 -147 -17 -162 6 -16 8 -15 21 9 l14 26 217 -5 218 -5 36 38 c74
79 92 204 42 295 -14 27 -30 49 -34 49 -4 0 -15 7 -24 16 -22 23 -119 43 -257
54 -122 10 -151 18 -162 45 -7 18 -25 20 -30 3z"/>
<path d="M3956 7206 c-12 -32 -49 -75 -143 -166 l-125 -121 -81 78 c-99 95
-115 113 -129 153 -17 50 -29 21 -26 -61 3 -68 5 -74 25 -74 11 0 45 -21 75
-47 29 -26 63 -55 76 -63 52 -37 16 -63 -78 -55 -52 4 -64 9 -75 29 -12 23
-13 23 -18 5 -7 -27 -3 -171 5 -180 4 -4 16 4 27 17 19 24 21 24 232 27 201 3
214 2 240 -17 15 -12 30 -17 32 -13 13 22 17 71 11 123 -7 61 -20 74 -41 40
-9 -14 -29 -21 -76 -26 -98 -11 -138 12 -84 48 39 25 144 130 171 171 20 30
26 51 26 92 0 93 -18 109 -44 40z"/>
<path d="M15106 7228 c-8 -33 -7 -91 3 -107 7 -11 13 -9 30 8 19 19 32 21 165
21 87 0 147 -4 151 -10 4 -6 -13 -27 -37 -48 -23 -20 -74 -67 -111 -104 -38
-38 -71 -68 -73 -68 -11 0 -144 -136 -144 -147 0 -15 47 -36 65 -29 7 2 109 0
226 -5 170 -8 215 -13 222 -24 4 -8 17 -15 28 -15 18 0 19 6 17 73 -1 39 -4
76 -6 81 -3 4 -15 -5 -27 -20 l-23 -29 -134 -3 c-132 -2 -182 2 -176 16 4 9
219 215 313 300 63 58 68 65 52 77 -18 13 -175 24 -362 26 -64 1 -110 6 -127
15 -37 19 -45 18 -52 -8z"/>
<path d="M3804 6168 c-5 -7 -25 -44 -45 -83 l-37 -70 -59 -7 c-75 -9 -116 -21
-121 -36 -2 -6 24 -39 57 -74 34 -34 61 -70 61 -80 0 -10 -5 -49 -12 -88 -9
-55 -9 -73 0 -82 10 -10 17 -10 34 1 116 72 141 75 234 25 84 -45 91 -40 76
55 -7 38 -12 78 -12 88 0 11 27 46 60 79 33 32 59 65 58 73 -3 16 -84 41 -136
41 -28 0 -36 7 -65 53 -17 29 -39 65 -47 81 -17 34 -35 43 -46 24z"/>
<path d="M15247 6138 c-13 -24 -28 -53 -31 -65 -12 -38 -52 -61 -119 -68 -67
-8 -97 -19 -97 -37 0 -6 20 -30 43 -52 63 -59 90 -101 79 -123 -5 -10 -12 -46
-16 -81 -4 -48 -3 -64 8 -68 7 -3 49 13 91 36 l78 40 71 -35 c99 -49 130 -45
108 13 -6 15 -13 51 -16 80 l-5 53 59 64 c56 60 73 93 50 96 -5 1 -22 3 -37 5
-16 2 -49 6 -75 10 -53 7 -75 29 -122 122 -14 28 -30 52 -35 52 -5 0 -20 -19
-34 -42z"/>
<path d="M14798 5003 c-8 -10 -19 -29 -23 -43 -4 -14 -18 -45 -30 -70 -41 -80
-66 -144 -68 -175 -2 -29 -1 -30 38 -27 31 3 69 -9 160 -48 172 -73 189 -82
195 -109 7 -29 23 -37 37 -19 6 7 23 42 38 78 31 76 61 143 81 183 27 54 16
87 -38 120 -46 28 -73 21 -44 -12 34 -40 37 -78 10 -150 -34 -92 -50 -99 -135
-57 -73 36 -76 48 -36 120 16 30 30 42 51 46 51 9 42 29 -29 61 -80 36 -108
33 -76 -7 27 -34 26 -40 -4 -108 -24 -54 -40 -66 -61 -47 -5 5 -26 14 -47 21
-60 19 -64 40 -25 121 21 44 39 69 50 69 65 1 63 48 -2 65 -18 4 -31 1 -42
-12z"/>
<path d="M4211 4979 c-31 -51 -44 -70 -68 -98 -12 -14 -43 -52 -69 -84 -52
-65 -68 -85 -119 -140 -34 -36 -45 -70 -27 -81 5 -3 98 2 208 10 109 9 220 13
247 10 43 -5 47 -3 47 16 0 27 -40 88 -57 88 -7 0 -13 -6 -13 -14 0 -24 -19
-30 -135 -43 -138 -15 -165 -16 -165 -3 0 5 42 59 93 120 88 106 93 111 124
105 l32 -6 -25 63 c-37 91 -48 99 -73 57z"/>
<path d="M14632 4638 c-7 -7 -12 -20 -12 -29 0 -10 -5 -21 -10 -24 -36 -22
-88 -143 -90 -206 -1 -93 89 -207 188 -235 100 -29 200 0 261 77 59 73 80 193
42 240 -24 30 -28 20 -33 -72 -3 -54 -9 -74 -31 -102 -54 -71 -127 -84 -224
-41 -60 26 -126 85 -138 122 -3 12 -3 46 1 75 9 69 53 109 128 117 74 7 75 32
0 65 -65 29 -66 29 -82 13z"/>
<path d="M4440 4538 c0 -13 -4 -28 -8 -34 -6 -11 -115 -74 -241 -140 -24 -13
-49 -29 -57 -35 -10 -8 -22 -8 -45 0 -41 14 -39 15 -39 -10 0 -33 74 -149 95
-149 3 0 5 12 5 28 0 40 8 47 95 93 44 23 94 50 110 60 17 10 44 25 61 33 17
8 35 19 38 25 22 35 86 -15 86 -66 0 -25 -8 -37 -42 -62 -23 -17 -46 -31 -50
-31 -5 0 -34 -17 -66 -39 -108 -73 -157 -94 -183 -81 -11 6 -24 8 -29 5 -13
-8 -13 -42 0 -50 6 -4 22 -29 35 -56 29 -56 50 -63 60 -20 8 36 16 44 103 94
30 16 32 16 41 -1 7 -12 4 -29 -10 -57 -10 -22 -18 -48 -19 -57 0 -9 -4 -19
-10 -23 -5 -3 -17 -30 -26 -60 -16 -51 -16 -56 0 -100 19 -48 48 -59 54 -20 8
53 67 218 79 222 8 3 22 -2 32 -11 21 -19 72 -30 104 -22 34 8 65 38 82 80 14
34 14 43 0 92 -8 30 -19 54 -24 54 -5 0 -14 12 -20 28 -6 15 -20 41 -31 57
-11 17 -27 45 -35 63 -8 17 -20 32 -25 32 -6 0 -10 6 -10 13 0 7 -14 40 -32
73 -48 92 -78 118 -78 72z m183 -348 c9 -22 17 -51 17 -64 0 -44 -52 -78 -103
-69 -29 6 -90 68 -84 86 5 15 117 85 137 86 9 1 23 -17 33 -39z"/>
<path d="M14406 4212 c-13 -26 -32 -54 -40 -61 -9 -8 -16 -24 -16 -37 0 -23 3
-24 41 -18 32 5 46 3 69 -15 16 -11 32 -21 36 -21 3 0 26 -14 51 -30 24 -17
61 -39 81 -50 89 -49 97 -56 100 -88 5 -46 32 -41 60 11 12 23 22 47 22 53 0
6 10 18 23 27 17 12 19 18 10 28 -10 10 -17 10 -38 -1 -29 -16 -31 -15 -180
75 -49 30 -104 62 -122 71 -30 16 -53 50 -53 79 0 33 -21 22 -44 -23z"/>
<path d="M14315 4043 c-16 -21 -36 -50 -42 -66 -12 -27 -11 -28 10 -27 42 4
47 0 94 -72 26 -40 62 -92 81 -115 46 -57 31 -62 -108 -34 -60 11 -118 21
-130 21 -12 0 -25 10 -32 25 -6 14 -18 24 -26 23 -14 -3 -91 -104 -92 -120 0
-5 24 -8 53 -8 56 -1 178 -18 322 -46 125 -24 149 -24 153 2 2 11 -7 33 -20
49 -13 16 -36 50 -53 76 -56 88 -137 204 -155 224 -10 11 -20 39 -22 63 l-3
42 -30 -37z"/>
<path d="M4718 3996 c-15 -13 -32 -26 -39 -28 -8 -3 -9 -9 -4 -17 5 -9 19 -11
44 -7 31 5 40 1 68 -26 30 -29 44 -68 25 -68 -9 0 -97 -59 -202 -135 -59 -44
-83 -55 -112 -55 -48 0 -48 -11 -2 -77 41 -60 71 -70 76 -25 2 20 17 37 58 65
94 65 123 85 181 127 34 25 62 38 71 35 23 -9 41 -60 34 -92 -4 -16 -10 -38
-13 -50 -4 -18 -1 -23 15 -23 12 0 26 9 32 20 6 11 20 20 30 20 15 0 20 -7 20
-29 0 -25 -12 -39 -77 -90 -136 -107 -160 -129 -177 -165 -25 -53 -21 -106 13
-157 63 -95 134 -131 207 -105 42 14 134 73 134 84 0 14 138 112 158 112 26 0
52 -36 52 -71 0 -19 -12 -37 -42 -62 -24 -20 -82 -74 -131 -120 -77 -73 -91
-83 -117 -79 -44 6 -39 -23 13 -79 23 -25 74 -80 112 -122 39 -42 78 -77 88
-77 33 0 98 40 95 58 -3 13 -12 16 -45 14 -31 -3 -50 2 -76 20 -42 29 -97 91
-97 110 0 14 107 118 121 118 4 0 26 -21 49 -47 36 -42 40 -52 36 -84 -4 -25
-2 -38 7 -42 16 -6 120 90 112 103 -3 6 -23 10 -44 10 -33 0 -45 7 -80 46 -47
51 -48 46 21 118 36 36 39 37 60 23 26 -17 46 -37 83 -84 21 -26 25 -39 20
-66 -9 -47 5 -52 43 -15 23 20 31 36 27 48 -6 20 -140 166 -217 239 -27 24
-48 48 -48 53 0 16 -63 88 -77 88 -7 0 -13 -11 -13 -24 0 -26 -64 -96 -87 -96
-7 0 -17 -8 -22 -19 -11 -21 -89 -79 -141 -106 -29 -15 -38 -15 -72 -4 -43 14
-88 75 -88 119 0 30 43 93 79 116 14 10 53 40 86 69 68 58 104 76 134 68 31
-8 26 11 -14 62 -23 29 -95 127 -133 182 -120 174 -171 238 -188 240 -10 2
-31 -8 -46 -21z"/>
<path d="M13972 3542 c-137 -141 -173 -201 -112 -188 27 5 44 -5 142 -79 153
-116 178 -141 178 -171 0 -31 30 -45 44 -20 6 10 23 34 39 53 38 50 36 73 -7
73 -22 0 -46 10 -72 31 -94 73 -85 85 66 80 135 -4 167 4 193 48 27 45 22 55
-20 47 -69 -13 -207 -15 -220 -4 -9 7 -11 22 -7 44 9 48 -1 77 -38 113 -27 26
-39 31 -80 31 -46 0 -52 -3 -106 -58z m126 -44 c11 -13 23 -35 27 -49 9 -35
-18 -99 -42 -100 -32 -2 -48 3 -56 17 -4 8 -21 21 -37 29 -47 24 -49 53 -6 92
43 39 83 43 114 11z"/>
<path d="M13747 3283 c-18 -20 -52 -59 -77 -87 -77 -88 -120 -143 -120 -155 0
-8 11 -10 36 -5 32 6 40 3 77 -33 23 -21 69 -61 102 -89 104 -85 113 -95 130
-137 l16 -41 28 30 c16 17 67 74 115 127 95 107 102 127 64 184 -37 53 -69 39
-47 -20 9 -27 9 -38 -4 -63 -18 -36 -100 -124 -114 -124 -5 0 -20 12 -34 26
-13 14 -36 32 -51 40 -37 19 -47 54 -19 72 11 8 21 20 21 26 0 7 11 23 25 36
22 21 28 22 49 11 25 -14 46 -8 46 12 0 6 -24 33 -52 59 -58 51 -74 49 -70 -7
2 -27 -4 -42 -28 -66 -16 -18 -30 -36 -30 -40 0 -5 -9 -9 -21 -9 -28 0 -109
68 -109 91 0 11 25 44 55 74 51 52 57 55 90 49 31 -5 35 -4 35 14 0 18 -53 62
-75 62 -3 0 -21 -17 -38 -37z"/>
<path d="M13473 2974 c-3 -8 -24 -24 -47 -35 -53 -25 -78 -61 -83 -118 -5 -57
22 -106 71 -126 29 -12 47 -12 133 2 123 20 166 14 183 -26 14 -36 -4 -70 -56
-102 -35 -21 -37 -21 -126 -2 -44 9 -35 -21 18 -62 26 -19 50 -35 55 -35 4 0
20 11 35 25 15 14 30 25 34 25 4 0 16 8 28 18 11 9 29 25 41 34 58 48 47 171
-19 216 -31 21 -42 23 -100 18 -36 -3 -89 -13 -119 -21 -46 -12 -59 -12 -88 0
-51 22 -44 68 17 109 29 19 69 21 105 4 20 -9 28 -9 38 1 9 10 3 21 -32 52
-46 41 -78 50 -88 23z"/>
<path d="M5645 2735 c-5 -2 -23 -6 -38 -9 -33 -8 -67 -58 -67 -99 0 -40 27
-86 56 -97 50 -19 88 -12 122 23 54 56 41 136 -28 172 -16 8 -30 15 -32 14 -2
0 -7 -2 -13 -4z"/>
<path d="M6030 2563 c4 -51 0 -62 -27 -92 -16 -16 -44 -48 -63 -70 -19 -23
-47 -56 -62 -73 -16 -17 -28 -35 -28 -40 0 -17 -41 -48 -64 -48 -39 0 -39 -16
-3 -52 79 -77 114 -87 109 -30 -3 27 5 43 43 88 26 30 50 52 54 49 5 -2 11
-48 15 -101 6 -92 5 -98 -16 -121 l-23 -25 40 -35 c22 -19 50 -43 61 -54 23
-20 49 -25 59 -10 3 5 -1 27 -9 48 -20 52 -40 281 -26 298 11 13 121 29 210
30 78 0 78 14 2 73 -40 32 -62 35 -62 9 -1 -29 -21 -37 -106 -46 -117 -12
-127 -4 -71 60 24 28 51 49 62 49 11 0 27 5 35 10 12 7 4 19 -40 59 -64 58
-92 65 -90 24z"/>
<path d="M13148 2504 c-36 -19 -48 -43 -48 -96 1 -62 45 -108 105 -108 43 0
105 57 105 96 0 92 -86 150 -162 108z"/>
<path d="M12700 2321 c-38 -12 -111 -51 -150 -80 -19 -14 -44 -31 -55 -37 -11
-6 -21 -21 -23 -33 -3 -17 2 -21 27 -21 21 0 34 -7 43 -24 7 -13 51 -79 96
-147 46 -68 86 -139 89 -157 3 -18 9 -34 13 -37 11 -7 131 85 125 95 -4 6 -17
10 -31 10 -24 0 -33 8 -79 66 -31 39 -33 74 -5 74 11 0 66 -16 122 -35 110
-38 138 -39 183 -3 20 16 23 23 14 34 -6 8 -23 14 -38 14 -14 0 -63 12 -109
26 -92 30 -114 50 -82 79 40 36 19 123 -39 164 -30 22 -58 25 -101 12z m43
-81 c32 -26 39 -47 28 -86 -10 -35 -55 -84 -77 -84 -12 0 -94 112 -94 129 1
15 19 31 50 45 47 20 63 20 93 -4z"/>
<path d="M6427 2293 c-4 -3 -7 -24 -7 -47 0 -24 -7 -48 -18 -60 -10 -12 -51
-74 -91 -138 -66 -108 -96 -138 -120 -123 -5 3 -12 1 -16 -5 -11 -19 76 -90
110 -90 13 0 15 8 10 44 -6 40 -3 50 45 127 74 120 94 149 102 149 3 0 8 -28
10 -62 3 -35 13 -136 23 -225 18 -157 20 -163 42 -163 16 0 29 11 43 38 11 20
34 55 51 77 16 22 35 51 42 65 7 14 32 56 57 93 40 62 47 68 72 65 23 -4 28
-1 28 16 0 15 -16 30 -53 51 -71 41 -82 43 -73 14 17 -56 17 -65 -8 -102 -14
-21 -26 -44 -26 -51 0 -7 -9 -21 -20 -31 -11 -10 -20 -24 -20 -31 0 -7 -7 -20
-16 -29 -31 -31 -34 -19 -64 259 -13 113 -19 130 -60 151 -33 17 -34 17 -43 8z"/>
<path d="M12275 2083 c-49 -13 -119 -72 -146 -125 -29 -56 -26 -145 7 -214 31
-65 93 -134 120 -134 11 0 25 -5 30 -10 16 -16 116 -13 158 5 50 21 96 55 96
71 0 7 8 21 19 31 30 30 43 102 29 169 -6 33 -14 61 -17 64 -4 3 -15 18 -25
34 -22 35 -66 74 -109 99 -31 16 -114 22 -162 10z m97 -59 c25 -7 89 -84 118
-140 30 -60 33 -146 7 -184 -9 -14 -37 -33 -62 -44 -39 -16 -53 -17 -83 -7
-52 16 -96 60 -133 133 -42 82 -45 148 -9 197 40 55 84 67 162 45z"/>
<path d="M6870 1977 c-93 -47 -127 -82 -160 -167 -25 -62 -25 -111 -2 -171 23
-61 67 -109 125 -136 119 -57 247 -4 315 130 85 169 -12 338 -202 353 -29 2
-62 -2 -76 -9z m190 -83 c38 -34 40 -39 40 -94 0 -47 -7 -71 -32 -120 -65
-121 -135 -167 -211 -135 -101 42 -111 158 -25 290 68 103 155 125 228 59z"/>
<path d="M11995 1922 c-6 -4 -28 -14 -50 -21 -56 -19 -76 -51 -32 -51 24 0 57
-28 57 -48 0 -6 16 -45 35 -86 19 -42 35 -83 35 -91 0 -19 -34 -20 -49 -1 -19
23 -286 166 -309 166 -24 0 -91 -31 -92 -42 0 -4 15 -14 33 -22 28 -11 37 -24
57 -77 13 -35 29 -77 36 -94 67 -157 73 -180 54 -216 -8 -14 -7 -21 3 -25 17
-6 107 32 107 46 0 6 -16 26 -35 46 -19 19 -35 41 -35 48 0 8 -16 51 -35 96
-50 118 -45 134 27 85 20 -14 41 -25 46 -25 5 0 20 -8 33 -19 13 -10 35 -22
49 -26 14 -4 38 -18 53 -31 16 -13 33 -24 38 -24 5 0 27 -11 49 -25 78 -49 94
-28 50 69 -16 37 -30 74 -30 81 0 7 -7 26 -15 42 -62 118 -86 213 -54 213 5 0
9 9 9 20 0 20 -18 27 -35 12z"/>
<path d="M7265 1788 c4 -24 9 -136 10 -251 2 -222 9 -257 43 -209 47 66 152
182 164 182 8 0 12 -73 13 -200 0 -49 2 -55 21 -55 14 0 37 19 63 50 69 84
131 158 169 203 20 24 40 52 44 63 11 28 83 27 98 -1 6 -11 9 -24 6 -29 -3 -4
-14 -48 -26 -97 -37 -163 -58 -228 -79 -245 -39 -31 -26 -44 72 -74 222 -67
247 -68 282 -18 14 21 25 43 25 50 0 18 -45 16 -59 -1 -20 -24 -67 -28 -133
-11 -85 21 -93 30 -75 86 8 24 30 100 48 169 26 98 38 130 58 147 14 11 23 25
18 29 -13 13 -80 34 -110 34 -15 0 -40 6 -55 13 -39 20 -121 41 -129 33 -4 -3
-1 -12 5 -18 18 -18 14 -50 -8 -73 -11 -11 -43 -48 -71 -83 -85 -105 -87 -104
-88 52 -1 133 -1 133 24 144 14 6 25 15 25 20 0 11 -130 63 -141 56 -12 -7
-11 -41 1 -49 27 -17 -5 -145 -36 -145 -8 0 -22 -16 -31 -35 -10 -21 -24 -35
-35 -35 -16 0 -18 11 -18 129 0 95 3 131 13 140 8 6 17 7 22 3 4 -4 6 1 4 12
-4 18 -86 56 -123 56 -16 0 -18 -5 -11 -42z"/>
<path d="M11305 1670 c-57 -29 -67 -39 -100 -95 -26 -43 -29 -59 -28 -117 2
-95 50 -191 117 -232 154 -96 364 15 359 189 -1 73 -13 127 -31 148 -8 9 -20
27 -26 38 -6 12 -31 35 -54 53 -39 27 -53 31 -120 34 -62 2 -85 -1 -117 -18z
m136 -36 c45 -19 99 -83 99 -119 0 -11 5 -26 12 -33 7 -7 12 -41 12 -79 0 -84
-20 -125 -74 -153 -35 -18 -46 -19 -81 -10 -82 22 -144 128 -144 247 0 81 16
113 75 144 42 23 49 23 101 3z"/>
<path d="M10995 1573 c-67 -20 -72 -27 -36 -52 22 -16 31 -31 31 -50 0 -15 5
-43 11 -60 16 -44 2 -55 -91 -74 -89 -18 -93 -16 -109 68 -10 55 -10 62 10 88
11 16 18 31 16 34 -5 5 -134 -13 -167 -24 -12 -3 -11 -8 6 -21 33 -26 44 -54
70 -181 35 -175 40 -229 20 -237 -9 -3 -16 -13 -16 -21 0 -18 63 -14 120 7 19
7 41 15 49 17 10 3 5 12 -17 31 -23 20 -35 41 -43 77 -19 91 -20 88 41 103 30
7 68 17 83 22 43 14 53 5 70 -67 15 -61 15 -70 0 -100 -8 -19 -13 -36 -9 -40
10 -10 139 15 148 29 5 9 0 20 -16 33 -20 16 -28 41 -45 130 -12 61 -28 139
-36 174 -13 57 -13 67 0 88 30 45 -1 53 -90 26z"/>
<path d="M8271 1507 c-10 -13 -8 -16 8 -22 12 -3 21 -13 21 -20 0 -8 -13 -92
-30 -187 -27 -160 -31 -175 -57 -195 -34 -28 -26 -36 52 -52 33 -7 80 -16 105
-21 56 -12 138 -22 165 -22 30 1 65 48 65 88 0 43 -18 44 -53 4 -35 -39 -60
-44 -143 -27 -50 10 -70 18 -72 31 -7 33 19 154 34 160 12 5 124 -18 128 -26
1 -2 7 -16 14 -31 17 -40 35 -29 45 28 5 27 13 55 19 62 13 16 3 43 -15 43 -7
0 -24 -12 -36 -26 -17 -19 -28 -24 -44 -19 -12 4 -39 9 -60 12 -20 3 -39 9
-42 13 -8 14 7 118 19 136 10 13 21 14 81 4 61 -9 74 -15 100 -45 42 -49 57
-46 53 12 -3 47 -3 47 -48 59 -25 7 -92 19 -150 28 -58 9 -114 19 -126 22 -12
3 -26 -1 -33 -9z"/>
<path d="M8685 1430 c-4 -6 2 -21 13 -33 19 -20 20 -29 12 -92 -5 -38 -12
-117 -16 -174 -6 -94 -9 -107 -32 -128 -16 -15 -22 -27 -16 -33 17 -17 241
-32 287 -19 132 35 187 109 187 252 0 100 -38 155 -140 200 -44 20 -79 26
-172 32 -82 4 -118 3 -123 -5z m229 -59 c65 -30 103 -75 116 -136 12 -59 7
-90 -26 -156 -26 -53 -61 -73 -143 -83 -69 -9 -93 9 -86 63 3 20 9 96 14 169
6 74 15 140 22 148 16 19 52 18 103 -5z"/>
<path d="M9840 1407 c-91 -5 -169 -13 -174 -18 -6 -5 1 -18 16 -32 22 -21 25
-33 31 -123 11 -191 9 -251 -9 -279 -28 -43 -12 -47 142 -36 76 6 154 11 171
11 28 0 35 5 48 36 16 40 20 90 7 98 -5 3 -22 -13 -38 -34 -34 -46 -53 -53
-149 -54 l-70 -1 -6 60 c-3 33 -4 73 -1 88 5 28 5 28 76 25 63 -3 72 -6 81
-26 18 -40 30 -17 30 58 0 52 -4 75 -13 78 -8 2 -16 -6 -19 -18 -7 -27 -40
-40 -104 -40 -44 0 -51 3 -59 26 -14 36 -12 110 3 122 13 11 76 17 140 14 29
-2 40 -7 49 -27 7 -15 18 -24 27 -23 22 4 24 63 3 86 -16 16 -30 17 -182 9z"/>
<path d="M9316 1390 c-50 -17 -120 -79 -134 -119 -36 -101 -39 -130 -21 -195
15 -54 42 -88 107 -132 l55 -38 95 2 c70 1 105 7 131 20 l36 19 12 108 c7 60
11 110 10 111 -1 1 -22 5 -47 8 -59 9 -78 -3 -62 -39 7 -14 12 -55 12 -90 0
-55 -3 -66 -22 -79 -28 -20 -100 -21 -137 -2 -50 27 -88 80 -96 135 -19 142
40 246 148 258 56 7 102 -18 141 -77 14 -22 31 -40 36 -40 14 0 22 40 18 96
l-3 49 -45 2 c-25 1 -78 6 -117 10 -55 6 -83 5 -117 -7z"/>
<path d="M10304 1286 c-33 -33 -36 -40 -31 -77 8 -60 49 -99 103 -99 57 0 70
6 95 46 16 26 19 43 14 72 -10 61 -34 84 -93 90 -49 4 -54 2 -88 -32z"/>
</g>
</svg>
